<svg width="56" height="56" viewBox="0 0 56 56" fill="none" xmlns="http://www.w3.org/2000/svg">
<path d="M52.1907 23.9592C52.2083 24.047 52.2282 24.1162 52.242 24.1865C52.2732 24.3457 52.3013 24.5054 52.3308 24.6648C52.3344 24.6843 52.3408 24.7035 52.3424 24.7232C52.3587 24.9274 52.3687 25.1323 52.3914 25.3358C52.4191 25.5828 52.4575 25.8286 52.4906 26.075C52.4941 26.1014 52.4928 26.1286 52.4943 26.1553C52.5506 27.1574 52.5478 28.1604 52.5392 29.1634C52.537 29.4151 52.5348 29.6719 52.4851 29.9163C52.4485 30.0966 52.4611 30.2729 52.4423 30.4499C52.4216 30.6446 52.3849 30.8375 52.3554 31.0313C52.3505 31.0639 52.3443 31.0966 52.3436 31.1294C52.3371 31.4323 52.2734 31.7243 52.1982 32.0162C52.1609 32.1613 52.1685 32.3179 52.1422 32.4667C52.1037 32.6842 52.055 32.9 52.0069 33.1156C51.9534 33.3556 51.8983 33.5952 51.8392 33.8338C51.7802 34.0717 51.7138 34.3077 51.6536 34.5453C51.6152 34.6967 51.5887 34.8515 51.545 35.0012C51.4976 35.163 51.4371 35.3208 51.3812 35.4799C51.2374 35.8889 51.0965 36.2989 50.9473 36.7058C50.8736 36.9069 50.7824 37.1012 50.702 37.2999C50.612 37.5222 50.5464 37.7581 50.4308 37.9653C50.3293 38.1472 50.2868 38.3527 50.1596 38.527C50.0397 38.6914 49.9933 38.9096 49.8944 39.0927C49.6779 39.4935 49.4355 39.8801 49.2289 40.2859C49.0842 40.5702 48.9063 40.8315 48.743 41.1025C48.5893 41.3575 48.4107 41.5968 48.2436 41.8434C48.1306 42.01 48.0256 42.1827 47.9045 42.3429C47.7061 42.6054 47.495 42.8579 47.294 43.1184C47.1354 43.3239 46.9863 43.5369 46.8283 43.7427C46.7405 43.857 46.6458 43.9661 46.5493 44.073C46.2977 44.3518 46.0485 44.6331 45.7885 44.9035C45.6046 45.0948 45.3815 45.251 45.2179 45.4575C45.0194 45.7079 44.7649 45.8915 44.5456 46.1156C44.3052 46.3611 44.0186 46.5594 43.7542 46.7808C43.6339 46.8814 43.5206 46.9905 43.4004 47.0911C43.2302 47.2335 43.0605 47.3769 42.8835 47.5101C42.6718 47.6695 42.4526 47.8187 42.2367 47.9723C42.0471 48.1074 41.8473 48.232 41.6646 48.3711C41.4461 48.5374 41.2063 48.6596 40.9802 48.8078C40.7101 48.9849 40.4326 49.1513 40.1523 49.3113C39.7731 49.5279 39.3904 49.7384 39.0047 49.9426C38.7946 50.0538 38.5792 50.1525 38.356 50.2395C38.1457 50.3214 37.9385 50.4269 37.7326 50.5276C37.612 50.5865 37.4902 50.6435 37.3659 50.6932C37.0454 50.8213 36.7286 50.9629 36.4 51.0642C36.151 51.1409 35.9261 51.2902 35.6572 51.3094C35.5721 51.3154 35.4914 51.3734 35.4067 51.401C35.0968 51.5022 34.7879 51.6071 34.4751 51.6975C34.2974 51.7489 34.1123 51.7734 33.9313 51.8134C33.8818 51.8244 33.8362 51.8535 33.7867 51.8645C33.6309 51.8992 33.4734 51.9261 33.3179 51.9618C33.1196 52.0075 32.9236 52.0636 32.7248 52.1061C32.5925 52.1343 32.4565 52.1437 32.323 52.1665C32.1595 52.1945 31.9969 52.2281 31.8338 52.2586C31.7261 52.2787 31.6188 52.3048 31.5101 52.3155C31.2777 52.3384 31.0438 52.3471 30.8117 52.3726C30.5691 52.3993 30.3278 52.4388 30.0859 52.4726C30.0795 52.4735 30.0728 52.4729 30.0662 52.4732C29.7734 52.4896 29.4807 52.5175 29.1878 52.5202C28.4445 52.5269 27.701 52.5272 26.9576 52.5202C26.6186 52.5171 26.2775 52.5098 25.942 52.4669C25.7668 52.4445 25.5924 52.4434 25.4188 52.4244C25.2351 52.4044 25.0544 52.3558 24.8716 52.3247C24.7443 52.3031 24.616 52.2876 24.4876 52.2738C24.3141 52.2551 24.1397 52.2442 23.9665 52.2229C23.8592 52.2097 23.7536 52.1832 23.6471 52.163C23.3956 52.1153 23.1426 52.0741 22.8927 52.0183C22.6381 51.9615 22.3866 51.8902 22.1336 51.8259C21.9174 51.771 21.7002 51.7201 21.4849 51.6618C21.2941 51.61 21.104 51.5548 20.916 51.4934C20.4737 51.3488 20.03 51.2074 19.5921 51.0496C19.2307 50.9194 18.8763 50.7691 18.52 50.6245C18.3511 50.556 18.1851 50.48 18.0179 50.4074C18.0209 50.3939 18.024 50.3803 18.0271 50.3667C18.1654 50.3867 18.3031 50.4121 18.442 50.4251C18.5464 50.4349 18.6525 50.4352 18.7571 50.4279C18.8726 50.4199 18.987 50.3875 19.1023 50.3852C19.3494 50.3803 19.583 50.3198 19.8167 50.2449C20.0171 50.1807 20.2269 50.1463 20.4261 50.0788C20.6493 50.0032 20.8636 49.9008 21.0846 49.8182C21.3542 49.7174 21.5806 49.5455 21.8161 49.3852C22.013 49.2513 22.1992 49.1127 22.3588 48.9301C22.4449 48.8315 22.5705 48.7699 22.6495 48.6537C22.7759 48.4677 22.9183 48.2931 23.0457 48.1078C23.1114 48.0122 23.1524 47.899 23.2165 47.8021C23.4637 47.4279 23.5918 47.0066 23.7012 46.5759C23.7568 46.3572 23.8279 46.1427 23.8907 45.9258C23.898 45.9007 23.8953 45.8727 23.8995 45.8464C23.9307 45.6468 23.9664 45.4479 23.9924 45.2476C24.0044 45.1553 23.9974 45.0605 23.9995 44.9668C24.0031 44.8042 24.0195 44.7847 24.1835 44.7819C24.2705 44.7804 24.3569 44.7894 24.4066 44.6787C24.5683 44.7689 24.723 44.8618 24.8833 44.9431C25.0723 45.0391 25.2584 45.16 25.4599 45.2061C25.6826 45.2571 25.9032 45.3247 26.1356 45.3487C26.3759 45.3735 26.6174 45.4116 26.8543 45.3827C27.0833 45.3548 27.3145 45.3471 27.5437 45.2985C27.7437 45.256 27.9453 45.1986 28.171 45.2727C28.3784 45.3408 28.6055 45.2687 28.7907 45.1229C28.8366 45.0867 28.8844 45.0521 28.9343 45.0221C29.0316 44.9636 29.1262 44.9584 29.2245 45.0302C29.5233 45.2484 29.8354 45.2524 30.1556 45.0799C30.263 45.022 30.3867 44.9826 30.409 44.8378C30.5621 44.8099 30.69 44.8392 30.8234 44.917C31.0412 45.0441 31.2735 45.0008 31.4935 44.906C31.6362 44.8445 31.7732 44.7721 31.8555 44.6217C31.8974 44.5453 32.0776 44.5165 32.1605 44.5613C32.4058 44.6937 32.9697 44.6521 33.1672 44.3781C33.2437 44.2721 33.339 44.2257 33.4788 44.2069C33.6153 44.1885 33.7348 44.187 33.8707 44.2085C33.9793 44.2256 34.1073 44.168 34.2163 44.1193C34.4253 44.0261 34.6411 43.9781 34.867 43.9597C35.0012 43.9487 35.1346 43.9239 35.2676 43.901C35.4253 43.8738 35.582 43.8413 35.7394 43.8125C35.9468 43.7746 36.1543 43.7373 36.362 43.7012C36.5455 43.6693 36.7319 43.65 36.9126 43.6063C37.2855 43.5161 37.6587 43.4312 38.0077 43.2532C38.4602 43.0224 38.807 42.6694 39.1442 42.3006C39.1601 42.2831 39.1647 42.2548 39.1784 42.2226C39.4037 42.3522 39.6165 42.4864 39.8397 42.5991C39.9929 42.6765 40.1593 42.7282 40.3222 42.7842C40.7249 42.9228 41.1431 42.8997 41.5574 42.8874C41.7141 42.8828 41.8682 42.8189 42.0255 42.7976C42.1599 42.7794 42.2867 42.7438 42.4154 42.7017C42.575 42.6496 42.7219 42.5768 42.8698 42.499C43.0997 42.3781 43.3326 42.2648 43.5267 42.0856C43.6231 41.9968 43.7234 41.9123 43.8173 41.8208C43.9474 41.6939 43.9855 41.693 44.1375 41.7811C44.3827 41.9232 44.6384 42.0394 44.9221 42.0812C45.0871 42.1055 45.2494 42.1556 45.4148 42.1686C45.5347 42.178 45.6561 42.1872 45.7818 42.1378C45.9041 42.0897 46.0496 42.1075 46.1803 42.0765C46.3847 42.0281 46.5936 41.9828 46.7846 41.8986C46.9464 41.8273 47.0932 41.7125 47.233 41.5994C47.4303 41.4398 47.6157 41.2645 47.739 41.0341C47.8246 40.8741 47.925 40.7197 47.9896 40.5511C48.0773 40.3221 48.1506 40.0852 48.2055 39.8458C48.278 39.5292 48.4068 39.224 48.3949 38.8887C48.3795 38.4522 48.195 38.1334 47.8102 37.9254C47.6192 37.8222 47.415 37.7812 47.1857 37.723C47.2027 37.6185 47.2197 37.5169 47.2355 37.415C47.2406 37.3822 47.2446 37.3489 47.2454 37.3157C47.2612 36.6751 47.2542 36.0328 47.2986 35.3943C47.3372 34.8404 47.2991 34.2833 47.3569 33.7353C47.4034 33.2938 47.3726 32.8563 47.3989 32.4181C47.41 32.2335 47.4428 32.0494 47.4422 31.8651C47.4407 31.4036 47.2169 31.0512 46.8353 30.8405C46.6075 30.7147 46.3373 30.6236 46.0562 30.7485C45.9588 30.7918 45.8424 30.7912 45.7344 30.8087C45.5255 30.8424 45.3164 30.8754 45.1071 30.9065C45.0907 30.909 45.072 30.8947 45.039 30.8826C45.0575 30.8119 45.0874 30.7453 45.0906 30.6773C45.0995 30.4889 45.088 30.3078 44.9549 30.1498C44.8465 30.0211 44.8652 29.8982 45.0127 29.75C45.119 29.6433 45.1954 29.5259 45.2163 29.3789C45.2339 29.2553 45.2529 29.1248 45.2319 29.0044C45.2067 28.8599 45.1525 28.7192 45.0553 28.5989C44.9615 28.4826 44.9772 28.4285 45.0703 28.3086C45.218 28.1187 45.3244 27.9021 45.2885 27.6559C45.2617 27.4717 45.188 27.2961 45.0721 27.1415C44.958 26.9892 44.9701 26.9515 45.0733 26.7765C45.2615 26.4576 45.2603 25.9408 44.9477 25.6919C44.8473 25.6119 44.8545 25.4957 44.7925 25.3985C44.9293 25.2305 45.0258 25.0494 44.9972 24.8204C44.9825 24.702 44.9534 24.5972 44.8843 24.4956C44.8082 24.3837 44.7527 24.2659 44.6359 24.1796C44.5515 24.1173 44.5067 23.9989 44.571 23.8773C44.6687 23.6926 44.6618 23.4884 44.6401 23.2931C44.6172 23.0875 44.4821 22.926 44.3212 22.8158C44.1974 22.731 44.1279 22.6336 44.099 22.4898C44.2644 22.3191 44.214 22.1011 44.1743 21.9108C44.1521 21.8044 44.0957 21.6813 44.0058 21.5806C43.9277 21.4933 43.8462 21.4316 43.7486 21.3807C43.6096 21.3082 43.5314 21.1794 43.5978 21.0186C43.6733 20.8356 43.6105 20.6784 43.5693 20.5119C43.5141 20.2892 43.3551 20.1574 43.1674 20.0633C43.0654 20.0122 42.9753 19.963 42.9473 19.8442C42.938 19.8043 42.9372 19.7598 42.9432 19.719C42.9958 19.3571 42.8508 19.0784 42.59 18.8513C42.5479 18.8147 42.4878 18.793 42.4324 18.7801C42.233 18.7337 42.1537 18.6378 42.1501 18.4257C42.1479 18.2943 42.154 18.1661 42.0967 18.0374C41.9755 17.7652 41.7898 17.5907 41.4922 17.5556C41.3568 17.5396 41.246 17.3881 41.2484 17.2025C41.2516 16.9531 41.1367 16.7545 40.9714 16.5961C40.8847 16.513 40.7485 16.4583 40.6282 16.4428C40.4446 16.4193 40.249 16.2718 40.2504 16.0403C40.2516 15.8496 40.156 15.7105 40.0103 15.6029C39.9166 15.5338 39.8221 15.4655 39.7243 15.4028C39.688 15.3795 39.639 15.3565 39.5996 15.3619C39.4462 15.383 39.3201 15.3317 39.2011 15.2287C39.2001 15.0594 39.1559 14.9064 39.0488 14.7593C38.8824 14.5309 38.6616 14.4303 38.3999 14.3915C38.3806 14.3886 38.3605 14.3912 38.3408 14.3911C38.1413 14.3903 38.055 14.3434 38.0067 14.161C37.9159 13.8177 37.6914 13.6465 37.3633 13.5738C37.2664 13.5524 37.1879 13.5286 37.0879 13.5729C36.9958 13.6138 36.8285 13.4942 36.7944 13.3864C36.7 13.088 36.3596 12.7679 36.0108 12.8129C35.9201 12.8246 35.8266 12.8106 35.7347 12.8156C35.6028 12.8228 35.5203 12.7598 35.459 12.6454C35.3984 12.5326 35.348 12.4177 35.2266 12.342C34.92 12.151 34.6719 12.116 34.3156 12.2589C34.1947 12.132 34.0651 11.9992 33.9391 11.8627C33.7172 11.6223 33.4386 11.6054 33.1509 11.6704C33.0327 11.6971 32.9227 11.7354 32.8047 11.6895C32.7754 11.6781 32.7318 11.6622 32.7254 11.6394C32.6808 11.4801 32.5279 11.4346 32.424 11.3414C32.3625 11.2863 32.2645 11.2602 32.1793 11.2486C31.9453 11.2169 31.7114 11.21 31.5149 11.3764C31.3531 11.3511 31.2431 11.2487 31.1261 11.141C31.0245 11.0474 30.8964 10.9876 30.7448 10.9677C30.5065 10.9366 30.2946 10.9663 30.096 11.1071C30.0142 11.1651 29.885 11.1284 29.7955 11.0536C29.609 10.8977 29.4115 10.7542 29.1545 10.7736C28.962 10.7882 28.7729 10.8228 28.6243 10.974C28.5418 11.0581 28.4054 11.0602 28.3271 10.9754C28.1631 10.7977 27.9412 10.7408 27.7296 10.7363C27.5371 10.7322 27.3233 10.775 27.1842 10.9596C27.1098 11.0582 26.9065 11.077 26.7977 10.9966C26.6534 10.8899 26.4977 10.8256 26.3159 10.8218C26.0676 10.8165 25.8618 10.9277 25.6946 11.0896C25.5668 11.2134 25.4423 11.1874 25.3101 11.1564C25.1924 11.1288 25.0803 11.0761 24.9653 11.036C24.9473 11.0298 24.9253 11.0261 24.9074 11.0305C24.6786 11.0866 24.4289 11.091 24.2596 11.2975C24.2471 11.3128 24.2296 11.3239 24.217 11.3392C24.1776 11.3871 24.145 11.4698 24.0996 11.4776C24.0149 11.492 23.9142 11.4836 23.8361 11.4482C23.6474 11.3627 23.4687 11.3782 23.2714 11.4193C23.0484 11.4658 22.8974 11.5737 22.7891 11.7721C22.7302 11.8798 22.5539 11.9224 22.4201 11.8839C22.1013 11.7922 21.8052 11.8384 21.5466 12.0528C21.4812 12.107 21.4495 12.2016 21.3916 12.2679C21.3414 12.3253 21.2749 12.3675 21.2175 12.4187C21.1501 12.4789 21.0894 12.4279 21.0212 12.4204C20.7976 12.396 20.5764 12.3841 20.3747 12.5429C20.2328 12.6546 20.0814 12.7388 20.0385 12.9392C20.0176 13.0369 19.7817 13.1676 19.6963 13.1095C19.5401 13.0033 19.4008 13.1015 19.2711 13.1394C19.0158 13.214 18.8507 13.4134 18.7545 13.6643C18.6916 13.8282 18.6342 13.8786 18.4646 13.8827C18.3356 13.8858 18.2115 13.8881 18.0825 13.9318C17.7908 14.0308 17.617 14.2224 17.5547 14.5244C17.5234 14.6767 17.4605 14.7448 17.31 14.7487C17.0916 14.7544 16.8941 14.804 16.7172 14.9457C16.5441 15.0844 16.432 15.2543 16.4044 15.4759C16.3827 15.65 16.2907 15.7486 16.1239 15.7662C15.7653 15.8039 15.5159 16.0038 15.3775 16.3339C15.3338 16.4381 15.3526 16.5696 15.3417 16.7024C15.2532 16.7727 15.1541 16.831 15.0203 16.8601C14.6851 16.9331 14.3751 17.3104 14.4001 17.6773C14.4167 17.9219 14.3866 17.9454 14.1467 18.0148C13.9264 18.0785 13.7671 18.2125 13.6709 18.4256C13.5904 18.6039 13.4956 18.7744 13.5793 18.9854C13.6127 19.0698 13.501 19.1932 13.3783 19.2333C13.0924 19.3268 12.7679 19.7141 12.8028 20.0671C12.8079 20.1181 12.8232 20.1686 12.8391 20.2176C12.8827 20.3531 12.8459 20.4564 12.7118 20.524C12.5222 20.6194 12.357 20.7406 12.2591 20.9372C12.1737 21.1087 12.1144 21.2859 12.18 21.4817C12.2524 21.6976 12.2048 21.8126 12.0179 21.9529C11.786 22.1269 11.6282 22.3472 11.6503 22.6624C11.6598 22.7977 11.6079 22.9482 11.7525 23.0352C11.7149 23.1986 11.652 23.3147 11.5056 23.4007C11.3877 23.4699 11.32 23.6106 11.2866 23.7596C11.2367 23.9819 11.2228 24.197 11.3103 24.4149C11.3458 24.5032 11.3525 24.6036 11.3743 24.7076C11.1344 24.8262 11.0079 25.027 10.9615 25.2626C10.9059 25.5457 10.9853 25.812 11.162 26.0641C11.1153 26.1335 11.079 26.2252 11.0128 26.2781C10.866 26.3957 10.8257 26.5583 10.8094 26.7264C10.7876 26.9522 10.7929 27.1774 10.9505 27.3676C11.0321 27.466 11.0296 27.6275 10.9501 27.7301C10.8086 27.9128 10.7429 28.1142 10.7497 28.3505C10.7553 28.5473 10.8215 28.706 10.9515 28.8442C11.084 28.9851 11.0969 29.0689 10.9845 29.2231C10.7839 29.4983 10.8015 29.9941 11.0153 30.2802C11.0345 30.3059 11.0621 30.326 11.0883 30.3449C11.2229 30.4421 11.2524 30.5922 11.1544 30.731C11.0744 30.8445 11.042 30.9694 11.0544 31.1046C11.0661 31.2312 11.0344 31.3527 11.1209 31.4843C11.2076 31.6163 11.2703 31.753 11.4166 31.8308C11.475 31.8618 11.4906 32.0723 11.4686 32.1499C11.4262 32.2996 11.3515 32.458 11.3688 32.603C11.4002 32.8667 11.5118 33.1074 11.7517 33.2601C11.93 33.3736 11.9269 33.4161 11.877 33.6193C11.8265 33.8249 11.8216 34.0364 11.9069 34.2427C11.9909 34.446 12.1434 34.573 12.325 34.6736C12.4308 34.7323 12.4888 34.8552 12.4414 34.9675C12.3378 35.213 12.4228 35.4317 12.5255 35.6454C12.6047 35.8103 12.74 35.9277 12.908 35.9889C13.0578 36.0435 13.0977 36.1532 13.1022 36.2944C13.1037 36.3414 13.1093 36.3896 13.1013 36.4351C13.0625 36.6568 13.1738 36.834 13.2702 37.0114C13.3498 37.1578 13.5061 37.2164 13.6469 37.279C13.8385 37.3643 13.91 37.4277 13.8943 37.6255C13.8704 37.9272 13.9932 38.1508 14.211 38.3305C14.2786 38.3863 14.3623 38.4274 14.4449 38.4572C14.58 38.506 14.7168 38.5454 14.7898 38.6938C14.7281 38.9116 14.8164 39.0972 14.9353 39.2781C15.0775 39.4947 15.2827 39.5936 15.5269 39.6302C15.6311 39.6459 15.7421 39.7685 15.75 39.8745C15.7769 40.2335 15.965 40.4711 16.2838 40.6055C16.3469 40.6321 16.4204 40.6355 16.4898 40.6433C16.5659 40.6518 16.6284 40.6653 16.7022 40.7117C16.8205 40.7861 16.8386 40.8677 16.8603 40.9945C16.9082 41.2754 17.1088 41.4507 17.3541 41.5585C17.4565 41.6035 17.5807 41.6042 17.6957 41.6101C17.8831 41.6198 17.9489 41.6648 18.0106 41.8533C18.1383 42.2435 18.5153 42.518 18.8686 42.4891C18.9343 42.4837 18.9834 42.4088 19.0686 42.4664C19.1634 42.5304 19.2295 42.5826 19.2646 42.7106C19.3479 43.0147 19.365 43.0238 19.3327 43.3427C19.2338 43.3374 19.1346 43.3712 19.0338 43.3111C18.9983 43.29 18.9445 43.2983 18.899 43.2978C18.7543 43.2965 18.6094 43.2936 18.4648 43.2982C18.2075 43.3063 17.9547 43.3467 17.7004 43.3908C17.5014 43.4253 17.3122 43.4828 17.1286 43.5544C16.8429 43.6658 16.5738 43.8085 16.3265 44.0039C16.1004 44.1826 15.9085 44.3858 15.7401 44.6152C15.5984 44.8082 15.4774 45.0119 15.3904 45.2415C15.3165 45.4361 15.2295 45.6252 15.1884 45.8306C15.1563 45.9907 15.1233 46.1519 15.1096 46.3142C15.0962 46.4741 15.1117 46.6362 15.1056 46.797C15.088 47.2567 15.1698 47.6985 15.3199 48.1303C15.472 48.5678 15.6876 48.965 16.0092 49.2979C16.027 49.3163 16.0404 49.3393 16.0545 49.3611C16.0575 49.3656 16.0544 49.3741 16.0533 49.3988C16.024 49.3901 15.9961 49.3872 15.9737 49.3743C15.6404 49.1815 15.3027 48.996 14.9768 48.7909C14.6986 48.6158 14.4328 48.4199 14.164 48.2297C13.7255 47.9194 13.2835 47.6137 12.8536 47.2914C12.6169 47.114 12.4024 46.9061 12.1767 46.7134C11.9881 46.5524 11.7932 46.3987 11.6094 46.2321C11.4505 46.0881 11.3044 45.9294 11.1505 45.7794C10.8913 45.5268 10.6239 45.2827 10.3722 45.0227C10.0738 44.7145 9.78188 44.3991 9.4995 44.0756C9.28977 43.8354 9.11379 43.5637 8.8972 43.3307C8.6413 43.0555 8.42836 42.7475 8.2023 42.4501C7.99029 42.1711 7.80628 41.87 7.61012 41.5785C7.55241 41.4928 7.50094 41.402 7.43683 41.3216C7.24181 41.077 7.11004 40.7917 6.9406 40.5321C6.73808 40.2218 6.58607 39.8836 6.38384 39.573C6.21512 39.3139 6.10166 39.0173 5.96393 38.7372C5.86012 38.5261 5.75065 38.3176 5.65472 38.1028C5.56206 37.8953 5.48485 37.6807 5.39844 37.4702C5.29968 37.2297 5.19496 36.9917 5.09894 36.75C5.01296 36.5336 4.93351 36.3144 4.85454 36.0952C4.79758 35.9371 4.74247 35.7781 4.69301 35.6174C4.59585 35.3017 4.50217 34.9849 4.40904 34.6679C4.34122 34.4372 4.27207 34.2066 4.21184 33.9737C4.15479 33.7531 4.10603 33.5302 4.0582 33.3073C3.99005 32.9896 3.9237 32.6716 3.86148 32.3527C3.8364 32.2241 3.82678 32.0925 3.80568 31.963C3.75963 31.6805 3.71073 31.3984 3.66302 31.1161C3.66191 31.1095 3.66076 31.1029 3.66025 31.0962C3.64151 30.8527 3.64149 30.6058 3.59938 30.3666C3.54809 30.0753 3.58688 29.7799 3.54552 29.4939C3.47503 29.0064 3.52227 28.5201 3.50869 28.0338C3.49783 27.645 3.50061 27.2554 3.50838 26.8664C3.51448 26.561 3.51399 26.2521 3.5618 25.9522C3.59025 25.7737 3.58856 25.5978 3.60715 25.4215C3.62684 25.2347 3.66967 25.0505 3.70027 24.8649C3.70674 24.8256 3.70566 24.7847 3.70526 24.7445C3.7034 24.5586 3.74176 24.381 3.79495 24.2035C3.83022 24.0857 3.83961 23.9597 3.85799 23.837C3.89095 23.617 3.90896 23.3936 3.95683 23.1771C4.02931 22.8492 4.13577 22.5289 4.20254 22.2C4.28128 21.8122 4.38146 21.4318 4.50076 21.0555C4.62439 20.6655 4.73326 20.2705 4.86321 19.8828C4.95144 19.6195 5.06428 19.3648 5.16719 19.1067C5.31645 18.7325 5.44369 18.3466 5.62348 17.9882C5.77811 17.6799 5.90756 17.3596 6.07037 17.056C6.17755 16.8561 6.28653 16.6572 6.39699 16.4592C6.62419 16.0519 6.8324 15.6339 7.09222 15.2452C7.29357 14.944 7.46805 14.6242 7.66595 14.3204C7.80849 14.1016 7.96894 13.8948 8.1232 13.6841C8.273 13.4794 8.40621 13.2571 8.58204 13.0789C8.72779 12.9311 8.80667 12.7323 8.97708 12.6053C9.06267 12.5416 9.11702 12.4339 9.18476 12.3456C9.24002 12.2735 9.29038 12.1971 9.34949 12.1286C9.56836 11.8747 9.78369 11.6173 10.0125 11.373C10.2002 11.1725 10.4052 10.9889 10.6025 10.7978C10.6168 10.784 10.6321 10.771 10.645 10.7558C10.8565 10.5062 11.1025 10.2917 11.3331 10.0618C11.5425 9.85291 11.7758 9.66893 11.998 9.47329C12.1355 9.35223 12.2679 9.22469 12.4099 9.10944C12.5953 8.95896 12.7953 8.82651 12.9751 8.66978C13.1177 8.54551 13.271 8.43933 13.4229 8.32921C13.7538 8.08933 14.0689 7.82673 14.4241 7.62216C14.5187 7.56764 14.6068 7.50144 14.6984 7.44129C15.0919 7.18273 15.4958 6.94311 15.9038 6.70829C16.1776 6.55064 16.4541 6.39761 16.7317 6.24738C17.0099 6.09679 17.2945 5.9579 17.5795 5.82072C17.7343 5.74621 17.8967 5.68853 18.0537 5.61855C18.2295 5.54019 18.3992 5.4462 18.5783 5.37707C19.1209 5.16755 19.6655 4.96305 20.212 4.76406C20.5113 4.65506 20.8108 4.53859 21.1194 4.46623C21.4809 4.38146 21.8269 4.23691 22.1993 4.19236C22.3606 4.17307 22.5142 4.09499 22.6744 4.05728C22.8059 4.02632 22.9428 4.02002 23.0758 3.99459C23.2063 3.96963 23.3343 3.93091 23.4646 3.90452C23.5906 3.879 23.7185 3.86342 23.8449 3.84002C24.0147 3.8086 24.1829 3.76787 24.3534 3.74223C24.5258 3.7163 24.7005 3.70657 24.8736 3.68489C25.097 3.65693 25.3198 3.62408 25.5428 3.5936C25.5623 3.59093 25.5821 3.58865 25.6017 3.58884C25.96 3.5924 26.3182 3.55279 26.672 3.52026C27.4262 3.45092 28.1785 3.49722 28.9312 3.48838C29.255 3.48458 29.5823 3.51543 29.9053 3.54263C30.2388 3.57072 30.5721 3.61568 30.9072 3.64055C31.1638 3.65959 31.4242 3.68198 31.6725 3.74514C31.9551 3.81703 32.2429 3.83798 32.5268 3.8906C32.6899 3.92082 32.851 3.96196 33.0128 3.99865C33.1494 4.02961 33.2862 4.06003 33.4224 4.09282C33.6884 4.15688 33.9539 4.22307 34.2198 4.28714C34.4066 4.33211 34.5956 4.36838 34.7803 4.42067C34.9762 4.47615 35.1686 4.54512 35.362 4.60969C35.6639 4.71044 35.9688 4.80272 36.2661 4.91611C36.7446 5.09867 37.2283 5.26764 37.6913 5.49181C37.9849 5.63396 38.2915 5.74812 38.5869 5.88656C38.7954 5.98422 38.9945 6.1025 39.1987 6.2098C39.3522 6.29048 39.5099 6.36326 39.661 6.44842C40.0711 6.67966 40.4804 6.91248 40.8865 7.15095C41.103 7.27808 41.3165 7.41159 41.5236 7.55399C41.8429 7.77351 42.1563 8.00195 42.4706 8.22888C42.7064 8.39913 42.9517 8.5586 43.1708 8.7492C43.395 8.94428 43.6419 9.1096 43.8535 9.32203C44.032 9.50116 44.2447 9.64429 44.4316 9.81547C44.7003 10.0617 44.9632 10.3149 45.2216 10.5723C45.5314 10.8811 45.84 11.1916 46.1376 11.5125C46.3438 11.7347 46.5296 11.9766 46.7266 12.2079C46.7781 12.2684 46.8427 12.3177 46.8917 12.3801C47.0648 12.6003 47.2332 12.8243 47.4044 13.0462C47.4841 13.1495 47.569 13.2488 47.6464 13.3539C47.8429 13.6206 48.0376 13.8887 48.2308 14.158C48.3215 14.2844 48.4096 14.4129 48.4946 14.5434C48.7072 14.8699 48.9248 15.1934 49.1262 15.5271C49.2902 15.7989 49.4331 16.0839 49.5861 16.3626C49.7302 16.6249 49.881 16.8834 50.018 17.1494C50.1163 17.3401 50.1973 17.5401 50.2852 17.7363C50.4499 18.1039 50.6214 18.4687 50.776 18.8408C50.8853 19.1039 50.9741 19.376 51.0669 19.6459C51.2359 20.1373 51.4077 20.6279 51.5657 21.1231C51.6681 21.444 51.7541 21.7709 51.8364 22.098C51.9109 22.3942 51.9918 22.6915 52.0305 22.9935C52.0713 23.3123 52.1992 23.6147 52.1907 23.9592ZM17.096 8.69639C17.1592 8.64819 17.2224 8.6 17.2843 8.55285C17.3061 8.36472 17.3282 8.17364 17.3497 7.98807C17.204 7.92571 17.1404 8.05249 17.0632 8.09987C17.0041 8.13616 17.0039 8.27209 16.9709 8.38632C16.8764 8.36543 16.776 8.31681 16.6841 8.3301C16.586 8.3443 16.4961 8.41692 16.3935 8.46862C16.5084 8.68129 16.7722 8.62699 16.8975 8.79777C16.9638 8.75696 17.0177 8.72085 17.0748 8.69128C17.0845 8.68629 17.1081 8.70946 17.1146 8.74404C17.0738 8.77443 17.0331 8.80498 16.9921 8.83517C16.7916 8.98284 16.6382 9.16767 16.6063 9.42453C16.5826 9.61521 16.6473 9.77929 16.7836 9.92435C16.94 10.0907 17.1193 10.1889 17.341 10.1582C17.5168 10.1339 17.6866 10.0671 17.8609 10.0279C17.9925 9.99835 18.1266 9.97195 18.2606 9.96404C18.3649 9.95789 18.4402 10.0443 18.4494 10.152C18.4587 10.26 18.4585 10.3666 18.355 10.4366C18.2424 10.5128 18.1385 10.6123 18.0153 10.6595C17.857 10.72 17.7161 10.6272 17.6062 10.5161C17.5405 10.4497 17.4751 10.4559 17.4168 10.4869C17.3378 10.5289 17.2696 10.5933 17.1999 10.6519C17.1401 10.7023 17.1296 10.7653 17.1824 10.8269C17.2769 10.937 17.3755 11.0392 17.5212 11.0837C17.8901 11.1965 18.2145 11.1175 18.5266 10.8924C18.7999 10.6953 18.9778 10.4688 18.9537 10.105C18.9342 9.81103 18.7832 9.61961 18.5531 9.47255C18.5372 9.46237 18.5191 9.44619 18.503 9.44732C18.2837 9.46277 18.0622 9.4043 17.8438 9.49182C17.6646 9.56363 17.4767 9.61395 17.278 9.60088C17.1029 9.58936 17.0669 9.51012 17.1296 9.33654C17.187 9.17778 17.3347 9.16533 17.4444 9.09563C17.595 9.00006 17.6366 9.0098 17.7673 9.13821C17.8413 9.21084 17.9206 9.21892 17.9965 9.17101C18.103 9.10387 18.1991 9.01949 18.3139 8.93153C18.2156 8.79906 18.1168 8.67949 17.9424 8.62515C17.7051 8.55121 17.4855 8.57479 17.2655 8.67615C17.2203 8.69699 17.171 8.70852 17.096 8.69639ZM13.274 15.001C13.3528 15.0131 13.4151 14.9847 13.4634 14.9212C13.5541 14.802 13.645 14.6829 13.738 14.5611C13.3266 14.4513 12.9145 14.3481 12.4714 14.3974C12.4863 14.3545 12.4949 14.3301 12.5032 14.3056C12.6225 13.9546 12.5597 13.6313 12.221 13.4168C11.9795 13.2639 11.596 13.2984 11.4137 13.4969C11.2923 13.6291 11.1775 13.7677 11.0588 13.9025C10.9052 14.077 10.7493 14.2492 10.5972 14.425C10.5224 14.5113 10.5293 14.569 10.6159 14.657C10.6498 14.6915 10.6855 14.7242 10.7217 14.7562C10.8779 14.8952 11.0513 15.0187 11.1867 15.1762C11.3334 15.3468 11.5188 15.4714 11.6625 15.6457C11.7865 15.7959 11.959 15.9033 12.0937 16.0456C12.2834 16.246 12.3122 16.1945 12.4833 16.0233C12.5173 15.9893 12.5563 15.9555 12.5761 15.9133C12.5935 15.8763 12.5994 15.8239 12.5878 15.7854C12.5776 15.7517 12.5371 15.7267 12.5082 15.6998C12.3096 15.5145 12.1104 15.3297 11.8926 15.1272C12.0005 15.0916 11.9862 14.9707 12.1112 14.9415C12.2404 14.9112 12.3545 14.8289 12.4923 14.9054C12.5075 14.9139 12.5312 14.9054 12.5508 14.907C12.7511 14.9235 12.9514 14.939 13.1513 14.9588C13.1819 14.9618 13.2104 14.9853 13.274 15.001ZM32.8966 8.43197C32.7949 8.21603 32.6932 8.00009 32.5862 7.77292C32.6179 7.75861 32.6677 7.72006 32.7205 7.71501C32.9931 7.68896 33.1206 7.50334 33.1909 7.26674C33.2165 7.18053 33.198 7.08035 33.1978 6.98655C33.1971 6.66488 33.0104 6.44003 32.6989 6.38439C32.5094 6.35055 32.3192 6.32038 32.1308 6.28116C31.9186 6.23698 31.7087 6.18092 31.4964 6.13741C31.415 6.12072 31.3585 6.16031 31.3442 6.25239C31.3151 6.43873 31.2831 6.62459 31.2515 6.81051C31.2341 6.91331 31.2137 7.0156 31.1971 7.11855C31.1743 7.26023 31.1569 7.40286 31.1319 7.54413C31.0733 7.87629 31.0114 8.20787 30.9513 8.53976C30.9502 8.54561 30.9544 8.55244 30.9613 8.57796C31.1145 8.60522 31.2759 8.63395 31.4623 8.66712C31.5164 8.33129 31.5691 8.00437 31.623 7.66967C31.7907 7.65593 31.9398 7.71461 32.0317 7.84589C32.1269 7.98187 32.1879 8.14424 32.2539 8.29944C32.325 8.46635 32.3807 8.64009 32.4523 8.8067C32.4674 8.84167 32.5199 8.87272 32.5601 8.88127C32.6983 8.91067 32.8425 8.91587 32.9769 8.95643C33.0761 8.98638 33.0856 8.94945 33.0626 8.87845C33.0169 8.73747 32.9605 8.60007 32.8966 8.43197ZM15.231 13.1141C15.3167 13.0448 15.4053 12.9788 15.4876 12.9055C15.6638 12.7488 15.8279 12.5765 16.0132 12.4322C16.2559 12.243 16.2651 12.215 16.0399 12.0063C15.9451 11.9185 15.9182 11.9164 15.8252 12.0004C15.5301 12.2669 15.2358 12.5345 14.9331 12.8091C14.8066 12.6597 14.6828 12.5215 14.5699 12.3746C14.5428 12.3393 14.5495 12.2911 14.6103 12.2467C14.7674 12.1318 14.9082 11.9939 15.0571 11.8672C15.1358 11.8004 15.2164 11.7358 15.2986 11.6735C15.4236 11.5788 15.431 11.4963 15.3225 11.3759C15.2707 11.3183 15.2202 11.2594 15.1557 11.1858C14.9888 11.329 14.8181 11.4886 14.6336 11.6293C14.4999 11.7313 14.4188 11.9046 14.2338 11.9423C14.1154 11.837 13.9926 11.7383 13.9582 11.5599C14.2471 11.2724 14.5998 11.0515 14.8551 10.7332C14.7555 10.5229 14.7519 10.5187 14.5891 10.4151C14.1415 10.8049 13.694 11.1946 13.2374 11.5923C13.7695 12.2275 14.2907 12.8497 14.8047 13.4632C14.9989 13.4092 15.0866 13.2494 15.231 13.1141ZM28.7459 6.72689C28.7459 6.97485 28.7619 7.22426 28.7406 7.4703C28.7248 7.6527 28.7152 7.86528 28.4938 7.93971C28.416 7.96584 28.323 7.98183 28.2453 7.96412C27.9982 7.9078 27.8336 7.84587 27.8472 7.5342C27.8662 7.09945 27.8507 6.66319 27.853 6.22759C27.8535 6.13023 27.8663 6.03294 27.8748 5.91684C27.71 5.8464 27.5333 5.89242 27.355 5.88709C27.3302 6.3082 27.3706 6.70621 27.3083 7.10419C27.2742 7.32195 27.2963 7.55032 27.3415 7.77612C27.3867 8.00145 27.4971 8.16406 27.6763 8.27838C27.9734 8.46791 28.2956 8.45694 28.6299 8.3942C28.9161 8.34047 29.0899 8.17607 29.1816 7.90991C29.2173 7.80631 29.2384 7.69426 29.2464 7.58456C29.2689 7.27419 29.2845 6.96319 29.2961 6.65217C29.3031 6.46479 29.2983 6.27691 29.2967 6.08928C29.2963 6.03876 29.2884 5.9883 29.2838 5.93747C29.1193 5.93747 28.9694 5.93747 28.827 5.93747C28.7995 6.19229 28.7727 6.44019 28.7459 6.72689ZM35.3763 9.19606C35.5964 9.28308 35.8164 9.3701 36.0435 9.4599C36.0435 9.62923 36.0458 9.7896 36.0426 9.94986C36.0409 10.0355 36.0739 10.088 36.1545 10.1134C36.2824 10.1539 36.4093 10.1974 36.5371 10.2398C36.5371 9.34896 36.5371 8.46023 36.5371 7.58689C36.4398 7.54372 36.3572 7.50842 36.2757 7.47063C36.0756 7.37783 36.0385 7.38011 35.886 7.54415C35.6663 7.78039 35.4522 8.02199 35.2366 8.26216C35.1871 8.31728 35.1423 8.37673 35.0937 8.43272C34.9175 8.63586 34.7413 8.83902 34.5636 9.04084C34.4781 9.13801 34.3893 9.23219 34.2845 9.34674C34.4595 9.42576 34.609 9.49331 34.7444 9.55448C34.8588 9.44566 34.9671 9.3572 35.0578 9.25278C35.1918 9.09857 35.1719 9.13019 35.3763 9.19606ZM42.4791 14.8067C42.5153 14.8455 42.5455 14.8959 42.5895 14.9198C42.6297 14.9416 42.7053 14.9588 42.73 14.9368C42.8573 14.8234 43.0241 14.8223 43.1718 14.74C43.3863 14.9855 43.5939 15.2232 43.7973 15.456C43.7067 15.6411 43.6242 15.8097 43.538 15.9857C43.6586 16.121 43.7779 16.2548 43.9117 16.4049C44.0847 16.0448 44.2459 15.7118 44.4048 15.3777C44.5102 15.1558 44.6084 14.9302 44.7174 14.7102C44.7983 14.547 44.8876 14.3878 44.98 14.231C45.0745 14.0706 45.0667 13.9788 44.9383 13.8442C44.8768 13.7797 44.821 13.7096 44.7524 13.6302C44.6234 13.5864 44.5109 13.6802 44.3855 13.7292C44.1476 13.8219 43.905 13.9023 43.6669 13.9944C43.3802 14.1053 43.0984 14.2294 42.8101 14.3354C42.6359 14.3995 42.4565 14.4473 42.3074 14.556C42.3597 14.6371 42.4083 14.7126 42.4791 14.8067ZM23.6468 7.68393C23.5674 8.07709 23.488 8.47025 23.4024 8.89365C23.575 8.86852 23.7322 8.84954 23.8873 8.81925C23.9137 8.8141 23.9437 8.76296 23.9502 8.72875C23.9722 8.61322 23.9897 8.49616 23.9984 8.37888C24.0047 8.29423 24.0299 8.24127 24.1192 8.22649C24.2072 8.21191 24.2955 8.1929 24.3804 8.16543C24.5712 8.10371 24.7656 8.07441 24.9597 8.06911C25.0674 8.24979 25.1696 8.42125 25.2645 8.58053C25.454 8.53642 25.6203 8.49767 25.8015 8.45549C25.3416 7.69086 24.8848 6.93128 24.4208 6.15977C24.2587 6.30816 24.0358 6.156 23.897 6.33807C23.897 6.37679 23.9044 6.42498 23.8957 6.46997C23.864 6.63499 23.8264 6.79881 23.7922 6.96334C23.7736 7.05308 23.759 7.14371 23.7398 7.23331C23.7101 7.37173 23.6779 7.50961 23.6468 7.68393ZM38.9741 11.7406C39.2935 11.8766 39.673 11.7762 39.95 11.4956C39.8946 11.3171 39.7536 11.2094 39.6264 11.0908C39.364 11.285 39.364 11.285 39.1733 11.2842C38.8952 11.2829 38.7 11.0821 38.6939 10.8031C38.6906 10.6536 38.7046 10.5158 38.7918 10.3874C38.864 10.2811 38.908 10.154 38.9846 10.0519C39.1378 9.84765 39.3249 9.71622 39.603 9.75385C39.9203 9.7968 40.1176 10.0934 40.014 10.4059C40.1282 10.5676 40.3193 10.5461 40.4708 10.6201C40.5919 10.4312 40.5618 10.2275 40.5299 10.0466C40.5042 9.90121 40.4106 9.74699 40.3039 9.64295C40.1582 9.50097 39.981 9.38393 39.7854 9.31518C39.678 9.27744 39.5586 9.23426 39.4508 9.24734C39.2428 9.27261 39.0397 9.32462 38.8561 9.45124C38.6612 9.58569 38.5472 9.77855 38.4095 9.96124C38.1729 10.2749 38.1925 10.6263 38.2039 10.9829C38.2045 11.0012 38.2183 11.0195 38.2273 11.0371C38.3312 11.2404 38.4193 11.455 38.641 11.5643C38.7449 11.6156 38.8423 11.6806 38.9741 11.7406ZM21.6712 7.25532C21.6925 7.23161 21.7353 7.20324 21.7315 7.18494C21.7083 7.07323 21.6745 6.96381 21.6372 6.82772C21.4494 6.87499 21.2788 6.90478 21.1171 6.96119C20.6792 7.11395 20.2451 7.27801 19.7937 7.44336C19.8319 7.58437 19.8689 7.72104 19.9049 7.85398C20.1467 7.80903 20.3464 7.64377 20.6082 7.67355C20.8179 8.3039 21.0245 8.92471 21.2328 9.55102C21.4201 9.58186 21.5392 9.41696 21.7242 9.37485C21.5102 8.73513 21.3018 8.11188 21.0862 7.46733C21.2851 7.39347 21.4629 7.3275 21.6712 7.25532ZM40.9123 13.2625C40.9691 13.3045 41.0298 13.3423 41.0817 13.3899C41.1363 13.4399 41.1837 13.4964 41.2826 13.4607C41.2875 13.4464 41.2899 13.4172 41.305 13.3993C41.5552 13.1044 41.8054 12.8095 42.0589 12.5176C42.218 12.3345 42.3859 12.1595 42.5434 11.975C42.6349 11.8677 42.7136 11.7489 42.8118 11.6167C42.6959 11.522 42.5882 11.4286 42.4737 11.345C42.4493 11.3272 42.3899 11.3304 42.3645 11.3492C42.3167 11.3844 42.2806 11.4369 42.242 11.4842C42.0235 11.7519 41.8089 12.0229 41.5869 12.2874C41.3597 12.5581 41.1259 12.823 40.8939 13.0894C40.8487 13.1413 40.8256 13.1891 40.9123 13.2625ZM36.1511 7.30573C36.2959 7.371 36.4296 7.36782 36.5687 7.27348C36.6823 7.1965 36.8137 7.14675 36.9549 7.07601C36.8233 7.01782 36.7084 6.96312 36.5905 6.91633C36.5162 6.88684 36.4385 6.87783 36.3737 6.94514C36.2915 7.03057 36.2064 7.11352 36.1292 7.20347C36.1127 7.22277 36.1246 7.26749 36.1511 7.30573Z" fill="white"/>
<path d="M30.0553 41.7917C30.0024 41.9199 29.9656 42.0394 29.907 42.1466C29.7171 42.4936 29.4944 42.8121 29.2278 43.1091C28.7783 43.6098 28.2314 43.9205 27.6053 44.1034C27.4467 44.1497 27.2698 44.1293 27.1098 44.1722C26.9421 44.2171 26.7752 44.2303 26.608 44.2161C26.3018 44.1901 25.9849 44.1797 25.7032 44.0527C25.4542 43.9404 25.205 43.8134 25.0093 43.5993C24.8263 43.3993 24.6666 43.1903 24.5464 42.9436C24.4353 42.7157 24.3591 42.4827 24.2947 42.2361C24.1782 41.7901 24.1424 41.3425 24.1512 40.8857C24.1567 40.6041 24.1408 40.3216 24.1558 40.0406C24.1684 39.8048 24.209 39.5702 24.2424 39.3358C24.2755 39.1034 24.3102 38.871 24.3537 38.6404C24.3802 38.4996 24.4156 38.3589 24.4631 38.2241C24.5446 37.9925 24.633 37.763 24.7294 37.5376C24.8163 37.3346 24.9078 37.1324 25.015 36.9402C25.2427 36.5322 25.539 36.1771 25.8739 35.8573C26.1551 35.5887 26.4946 35.4012 26.8273 35.2127C27.0188 35.1042 27.2457 35.0559 27.4609 34.9965C27.7994 34.903 28.1453 34.8672 28.4971 34.8824C28.6409 34.8885 28.7795 34.8957 28.9079 34.9717C28.9513 34.9974 29.003 35.0104 29.0525 35.0229C29.4097 35.1134 29.6199 35.3907 29.8476 35.6538C30.0721 35.9132 30.1428 36.2453 30.282 36.5441C30.3517 36.6939 30.3589 36.8736 30.397 37.0392C30.4188 37.1336 30.4459 37.2268 30.4775 37.3468C31.1734 37.2774 31.7346 36.9099 32.2899 36.5201C32.2744 36.4836 32.2705 36.4629 32.259 36.4487C32.0704 36.2158 32.1273 35.9347 32.1566 35.6828C32.1894 35.4008 32.3101 35.1315 32.4978 34.9057C32.5518 34.8409 32.5937 34.765 32.6504 34.7031C32.8745 34.4586 33.1536 34.2923 33.4454 34.1497C33.5354 34.1057 33.6423 34.0944 33.743 34.0766C33.9704 34.0365 34.1994 34.0058 34.4265 33.9636C34.6529 33.9215 34.8769 33.8654 35.1035 33.8242C35.261 33.7956 35.4222 33.7878 35.58 33.7599C35.8126 33.7189 36.0434 33.6673 36.2754 33.6221C36.3954 33.5987 36.5158 33.5768 36.6367 33.559C36.8659 33.5251 37.0966 33.5008 37.3248 33.461C37.5764 33.4171 37.8258 33.3601 38.0763 33.3097C38.088 33.3074 38.1014 33.3145 38.1415 33.3231C38.0042 33.7072 37.8682 34.0878 37.7321 34.4683C37.671 34.6391 37.6109 34.8103 37.548 34.9805C37.4199 35.3268 37.2868 35.6713 37.1619 36.0189C37.0349 36.3724 36.919 36.73 36.7915 37.0832C36.6768 37.4009 36.5529 37.7151 36.4334 38.0309C36.3553 38.2372 36.2802 38.4447 36.1997 38.65C36.0672 38.9879 35.9829 39.3427 35.8294 39.6741C35.7214 39.9073 35.6535 40.1596 35.5657 40.4026C35.4512 40.7192 35.3348 41.0351 35.2153 41.3618C35.4351 41.3618 35.6497 41.3911 35.8531 41.3547C36.1366 41.3041 36.4265 41.3081 36.7078 41.2177C36.848 41.1727 36.9871 41.136 37.1209 41.0685C37.2428 41.007 37.2906 40.9154 37.2986 40.7749C37.1202 40.7367 36.9757 40.6642 36.9416 40.4492C36.9067 40.2285 37.0175 39.938 37.2068 39.7994C37.3858 39.6682 37.585 39.5846 37.7954 39.529C37.9677 39.4835 38.3454 39.6152 38.4384 39.8145C38.5122 39.9728 38.5851 40.1281 38.6039 40.3124C38.6547 40.8079 38.4719 41.3136 38.1715 41.684C37.9885 41.9096 37.7729 42.0709 37.5332 42.2083C37.3267 42.3266 37.1034 42.4053 36.8648 42.4384C36.566 42.4798 36.2678 42.5277 35.9712 42.583C35.6447 42.644 35.3212 42.7216 34.9948 42.7823C34.7548 42.827 34.5111 42.8508 34.2708 42.8939C34.0255 42.9379 33.783 42.9984 33.5378 43.0434C33.398 43.0691 33.2545 43.073 33.1142 43.0962C32.9633 43.1212 32.815 43.163 32.664 43.1863C32.5819 43.199 32.4964 43.1886 32.3854 43.1886C32.4313 43.0669 32.4733 42.9611 32.5113 42.8539C32.6235 42.5373 32.7332 42.2197 32.8456 41.9032C32.9456 41.6217 33.0481 41.3413 33.1489 41.0601C33.2319 40.8288 33.3138 40.5971 33.3965 40.3657C33.5014 40.0721 33.6065 39.7786 33.7117 39.4851C33.8233 39.1739 33.9351 38.8627 34.0469 38.5516C34.2048 38.1121 34.3627 37.6726 34.5207 37.2331C34.679 36.793 34.8383 36.3533 34.9954 35.9127C35.1215 35.5592 35.2076 35.1903 35.3908 34.8588C35.405 34.8332 35.3965 34.7945 35.3993 34.7488C35.3504 34.7424 35.3038 34.7228 35.265 34.7332C34.9719 34.8118 34.6718 34.8442 34.3731 34.8891C34.1537 34.9221 33.9405 34.992 33.732 35.0762C33.5948 35.1316 33.5302 35.2143 33.5541 35.3638C33.7573 35.497 33.8446 35.777 33.7881 36.0359C33.6996 36.4412 33.4326 36.653 33.0665 36.7662C33.0239 36.7793 32.9749 36.7689 32.9297 36.7754C32.8991 36.7797 32.8512 36.7866 32.8433 36.806C32.8006 36.9114 32.6971 36.9493 32.6255 37.0212C32.4086 37.2392 32.1571 37.4122 31.8928 37.5637C31.6474 37.7044 31.398 37.839 31.1447 37.9641C30.9961 38.0375 30.8375 38.0906 30.6813 38.1464C30.5548 38.1916 30.5346 38.2213 30.5645 38.3433C30.5785 38.4003 30.592 38.4593 30.5926 38.5175C30.5959 38.8127 30.627 39.1125 30.587 39.4019C30.5396 39.7455 30.5825 40.0985 30.4586 40.4363C30.3901 40.6232 30.4048 40.8408 30.345 41.0326C30.2661 41.2856 30.211 41.5512 30.0553 41.7917ZM28.767 37.0324C28.9534 36.9058 28.9935 36.7408 28.899 36.5347C28.8722 36.4762 28.8672 36.4076 28.8429 36.3475C28.7505 36.1194 28.6272 35.9232 28.3526 35.9053C28.0529 35.8857 27.8067 36.0179 27.6137 36.2301C27.4579 36.4014 27.3235 36.5964 27.2433 36.8249C27.1919 36.9713 27.0848 37.1015 27.053 37.2502C26.9947 37.5236 26.8709 37.7753 26.8375 38.0582C26.7963 38.4068 26.6993 38.7483 26.6523 39.0964C26.6151 39.3719 26.6082 39.6527 26.6036 39.9314C26.5971 40.3237 26.5882 40.717 26.6476 41.1071C26.6516 41.1331 26.6528 41.1598 26.6589 41.1852C26.6892 41.3111 26.7277 41.4354 26.7504 41.5626C26.8015 41.8492 26.8722 42.1235 27.0784 42.344C27.118 42.3864 27.1392 42.4254 27.2048 42.4439C27.3644 42.489 27.5106 42.5311 27.6876 42.4964C27.8472 42.465 28.0175 42.4538 28.139 42.3519C28.2899 42.2256 28.4204 42.067 28.5341 41.9037C28.6245 41.774 28.6797 41.6179 28.7445 41.4707C28.8595 41.21 28.9479 40.9398 29.0024 40.6589C29.0247 40.5437 29.0397 40.4269 29.0615 40.3115C29.089 40.1649 29.133 40.0202 29.1465 39.8725C29.1645 39.6755 29.1616 39.4791 29.1926 39.28C29.2312 39.032 29.2019 38.7731 29.2019 38.5166C28.9187 38.4797 28.7362 38.3236 28.6572 38.0627C28.5528 37.7181 28.5663 37.3771 28.767 37.0324Z" fill="white"/>
<path d="M20.7339 38.3473C20.7472 38.3274 20.7497 38.3209 20.7498 38.3143C20.7667 37.6736 20.7631 37.0315 20.8076 36.3928C20.8354 35.9932 20.8055 35.5891 20.8609 35.1972C20.9101 34.85 20.8525 34.5022 20.9138 34.165C20.9794 33.8045 20.9261 33.4477 20.9605 33.0525C20.7852 33.1788 20.6317 33.2808 20.4879 33.3955C20.3606 33.497 20.2316 33.6014 20.1262 33.7248C19.9875 33.8873 19.8668 34.0665 19.7466 34.2443C19.6523 34.3839 19.554 34.525 19.4872 34.6788C19.3949 34.8911 19.3146 35.1119 19.2583 35.3366C19.1905 35.6073 19.1303 35.8841 19.1101 36.1615C19.0936 36.3898 19.0557 36.6274 19.1399 36.8553C19.1509 36.8853 19.1489 36.9215 19.1485 36.9547C19.1446 37.2858 19.242 37.6007 19.3166 37.9162C19.3523 38.0672 19.4748 38.1969 19.5582 38.3362C19.574 38.3626 19.5906 38.3885 19.618 38.4328C19.5651 38.4436 19.5303 38.4542 19.495 38.4575C19.3144 38.4744 19.1331 38.5066 18.953 38.501C18.7088 38.4936 18.4594 38.4432 18.2541 38.3142C18.0385 38.1787 17.8708 37.9756 17.7512 37.7374C17.6347 37.5056 17.571 37.2643 17.5501 37.0046C17.5376 36.8483 17.4818 36.6961 17.4992 36.535C17.5384 36.1722 17.5964 35.8143 17.7427 35.4769C17.7735 35.4058 17.7893 35.328 17.8185 35.256C17.9407 34.9536 18.1094 34.6775 18.297 34.4145C18.4599 34.186 18.6128 33.9414 18.8133 33.7511C19.1711 33.4115 19.4976 33.0331 19.931 32.7788C20.208 32.6164 20.4568 32.4035 20.7346 32.2429C20.9794 32.1014 21.2418 31.987 21.5058 31.8863C21.8094 31.7705 22.1202 31.6707 22.4338 31.5871C22.6559 31.5279 22.8882 31.5085 23.1153 31.4681C23.2022 31.4527 23.2876 31.4282 23.408 31.3997C23.3774 31.7095 23.4527 31.9935 23.3608 32.2747C23.3489 32.3113 23.3549 32.3544 23.3546 32.3945C23.3539 32.4885 23.3564 32.5825 23.3541 32.6763C23.3352 33.4425 23.3444 34.211 23.2852 34.9739C23.2504 35.4216 23.2961 35.8698 23.242 36.3112C23.1888 36.7456 23.2508 37.1823 23.194 37.6096C23.1381 38.0305 23.2078 38.4537 23.1441 38.8652C23.0708 39.339 23.148 39.8135 23.0878 40.2799C23.0369 40.6745 23.095 41.0689 23.0439 41.4567C22.9875 41.8838 23.0551 42.3146 22.9939 42.7334C22.9362 43.1281 23.0003 43.522 22.944 43.9081C22.8967 44.2328 22.915 44.5552 22.8939 44.8778C22.8775 45.1262 22.8461 45.375 22.801 45.6197C22.7586 45.8493 22.6946 46.0752 22.6305 46.3C22.572 46.5051 22.5164 46.7136 22.4306 46.9074C22.3392 47.1136 22.221 47.3087 22.1017 47.5005C21.9288 47.7786 21.7262 48.0355 21.475 48.2439C21.3006 48.3888 21.1193 48.5313 20.9227 48.6407C20.6494 48.7928 20.3665 48.9346 20.0736 49.0402C19.8295 49.1283 19.5638 49.1526 19.31 49.2148C19.039 49.2813 18.7668 49.3419 18.4876 49.3136C18.2712 49.2916 18.0533 49.2609 17.8431 49.2061C17.4945 49.1153 17.189 48.9316 16.9443 48.6628C16.735 48.4328 16.5733 48.1741 16.4414 47.8804C16.2247 47.3975 16.2421 46.9005 16.2619 46.4024C16.279 45.973 16.469 45.6005 16.7387 45.2689C16.9705 44.9837 17.265 44.7952 17.5953 44.6594C17.6946 44.6186 17.8028 44.5968 17.9088 44.5774C18.1195 44.5387 18.3309 44.5032 18.5471 44.5189C18.6388 44.5255 18.7313 44.5204 18.8234 44.5199C19.2614 44.5175 19.6488 44.8378 19.7573 45.304C19.8194 45.5706 19.7839 45.8268 19.8068 46.0871C19.794 46.0947 19.7813 46.1022 19.7685 46.1098C19.7204 46.0745 19.6764 46.0294 19.6233 46.0058C19.429 45.9194 19.2329 45.8527 19.0139 45.84C18.6797 45.8206 18.3849 45.9114 18.1292 46.1164C17.9448 46.264 17.8276 46.4696 17.757 46.7012C17.6278 47.1253 17.6886 47.5356 17.913 47.8971C18.0874 48.1781 18.3476 48.3798 18.7056 48.4019C19.0581 48.4236 19.2635 48.4002 19.5037 48.2941C19.7117 48.2024 19.8852 48.0656 19.9911 47.8644C20.1184 47.6224 20.219 47.3678 20.2518 47.0887C20.2723 46.9144 20.3242 46.744 20.3471 46.5698C20.3627 46.4511 20.3395 46.3269 20.3563 46.2086C20.4151 45.7971 20.3673 45.3799 20.413 44.9717C20.4452 44.6843 20.4316 44.4003 20.4482 44.1153C20.471 43.7235 20.4738 43.3274 20.515 42.9408C20.5527 42.5869 20.5189 42.2358 20.5571 41.8868C20.6082 41.4211 20.5738 40.9523 20.6148 40.4891C20.6371 40.2362 20.6102 39.9804 20.6544 39.7345C20.7331 39.2958 20.6803 38.8561 20.7055 38.4179C20.7066 38.3985 20.7163 38.3797 20.7339 38.3473Z" fill="white"/>
<path d="M46.4965 39.0917C46.7512 39.1501 46.9817 39.0777 47.2184 39.0199C47.3017 39.171 47.1963 39.3037 47.1854 39.4409C47.1754 39.5663 47.1233 39.6898 47.0805 39.8107C46.981 40.0921 46.868 40.3698 46.6677 40.5933C46.4941 40.7869 46.2659 40.9003 46.0163 40.9525C45.8586 40.9855 45.6948 40.995 45.5333 41.0011C45.1152 41.0167 44.7685 40.8467 44.4761 40.5529C44.2355 40.311 44.074 40.0183 43.9621 39.6513C43.8802 39.7908 43.7978 39.8941 43.7542 40.0124C43.6352 40.3355 43.4289 40.6031 43.2059 40.8448C43.0084 41.0589 42.7887 41.2634 42.5229 41.4039C42.3587 41.4907 42.1977 41.5796 42.017 41.6242C41.8814 41.6577 41.7464 41.7087 41.6091 41.7166C41.3652 41.7308 41.1194 41.7413 40.8752 41.7197C40.6012 41.6954 40.3657 41.568 40.1338 41.4254C39.9101 41.2877 39.7514 41.0826 39.5694 40.9013C39.5421 40.874 39.5192 40.8403 39.5006 40.8059C39.3535 40.5341 39.2086 40.2596 39.1128 39.9649C39.0548 39.7865 39.0338 39.5955 38.9968 39.4099C38.9637 39.2437 38.9297 39.0776 38.8998 38.9108C38.8916 38.8652 38.8956 38.8172 38.8956 38.7704C38.8954 38.3276 38.8904 37.8847 38.8981 37.442C38.901 37.2718 38.9275 37.1012 38.9536 36.9325C38.9754 36.791 39.0168 36.6527 39.0412 36.5116C39.1147 36.0872 39.2137 35.6728 39.3787 35.272C39.4973 34.9838 39.617 34.7004 39.7668 34.426C39.9983 34.0021 40.3009 33.6034 40.5635 33.3707C40.7218 33.2304 40.8879 33.0943 41.0728 32.9798C41.3438 32.812 41.6209 32.6722 41.9241 32.5826C42.2856 32.4757 42.6552 32.3797 43.0295 32.4426C43.3658 32.499 43.6765 32.6369 43.7956 33.0166C43.8014 33.035 43.8076 33.0533 43.8155 33.0708C43.8176 33.0753 43.827 33.0764 43.8535 33.0882C43.951 32.8317 43.8553 32.562 43.9121 32.2954C44.6957 32.1603 45.4831 32.0245 46.2825 31.8867C46.2874 31.9337 46.296 31.9781 46.2962 32.0224C46.2973 32.3445 46.3276 32.6703 46.2896 32.9876C46.2312 33.4749 46.2962 33.9659 46.2352 34.4461C46.1791 34.8877 46.2421 35.3288 46.1846 35.7624C46.1287 36.1832 46.1905 36.6053 46.1359 37.019C46.0751 37.4802 46.1218 37.939 46.0969 38.3979C46.0859 38.5997 46.1583 38.777 46.2605 38.9364C46.3042 39.0047 46.4081 39.033 46.4965 39.0917ZM41.3428 37.7995C41.3467 38.0232 41.357 38.2436 41.3908 38.468C41.4446 38.8255 41.5106 39.1698 41.6834 39.4907C41.8485 39.7973 42.198 39.9617 42.5228 39.8724C42.8788 39.7747 43.1357 39.5317 43.3335 39.2407C43.5742 38.8866 43.6653 38.4629 43.6901 38.0395C43.7181 37.5611 43.7094 37.0808 43.7363 36.6008C43.7773 35.8696 43.7776 35.136 43.7956 34.4035C43.7964 34.3703 43.7917 34.3331 43.8046 34.3049C43.9151 34.063 43.8323 33.8676 43.6851 33.6716C43.5539 33.497 43.3571 33.4779 43.1807 33.4077C43.1611 33.3999 43.1317 33.4167 43.1072 33.4232C43.0587 33.4362 43.011 33.4527 42.9619 33.4629C42.849 33.4863 42.7364 33.5034 42.64 33.58C42.5363 33.6625 42.436 33.7461 42.339 33.8378C42.2087 33.9607 42.1252 34.105 42.0403 34.2528C41.8523 34.5801 41.695 34.9209 41.6182 35.2963C41.5832 35.4675 41.5265 35.6343 41.4946 35.806C41.4671 35.9541 41.4714 36.1085 41.4427 36.2562C41.3772 36.5937 41.3297 36.9315 41.3418 37.2769C41.3475 37.4375 41.3428 37.5986 41.3428 37.7995Z" fill="white"/>
<path d="M16.8078 38.5929C16.5645 38.3248 16.3039 38.0707 16.082 37.7853C15.7584 37.3689 15.4137 36.9676 15.1477 36.5059C15.0407 36.3201 14.8808 36.1619 14.7955 35.968C14.6514 35.6407 14.4068 35.3749 14.2894 35.0304C14.2165 34.8162 14.0683 34.63 13.9749 34.4215C13.8558 34.1555 13.7577 33.8798 13.6509 33.6081C13.5848 33.44 13.5135 33.2737 13.455 33.1028C13.3667 32.8451 13.2818 32.5859 13.2061 32.3242C13.1167 32.0155 13.034 31.7045 12.9575 31.3922C12.9142 31.2154 12.8905 31.0337 12.8557 30.8547C12.8234 30.6887 12.7848 30.5239 12.7553 30.3575C12.7336 30.2347 12.7185 30.1105 12.7066 29.9862C12.687 29.782 12.6763 29.5768 12.6551 29.3727C12.5784 28.6343 12.5864 27.893 12.6101 27.1537C12.6181 26.9034 12.6222 26.6414 12.6989 26.394C12.7066 26.3693 12.702 26.3407 12.704 26.314C12.7193 26.1095 12.7226 25.903 12.7534 25.7009C12.7886 25.4707 12.851 25.245 12.8965 25.0162C12.936 24.8176 12.9619 24.6161 13.0056 24.4186C13.0475 24.2287 13.1013 24.0413 13.1558 23.8546C13.1954 23.7187 13.2496 23.5871 13.2883 23.451C13.4218 22.9821 13.5898 22.5261 13.789 22.0829C13.9871 21.6421 14.1918 21.2043 14.4036 20.7702C14.597 20.3736 14.827 19.9988 15.0794 19.6376C15.2497 19.3939 15.3999 19.1355 15.5714 18.8928C15.6771 18.7432 15.8079 18.6124 15.924 18.4704C16.0644 18.2988 16.2025 18.1253 16.3392 17.9507C16.6581 17.5434 17.0231 17.1801 17.3991 16.8306C17.6772 16.5722 17.9424 16.2972 18.2614 16.0836C18.4646 15.9476 18.6385 15.7668 18.8319 15.6144C18.969 15.5064 19.115 15.4095 19.2602 15.3125C19.5066 15.1478 19.7547 14.9857 20.0037 14.825C20.1007 14.7624 20.2005 14.7038 20.3017 14.6484C20.5854 14.4933 20.8643 14.327 21.1563 14.1903C21.7776 13.8993 22.4103 13.638 23.0593 13.4133C23.4824 13.2668 23.9101 13.138 24.3414 13.0294C24.6444 12.953 24.9517 12.886 25.258 12.8195C25.4214 12.7841 25.5923 12.7862 25.7586 12.7624C25.9478 12.7354 26.1356 12.6982 26.3242 12.666C26.3499 12.6616 26.3764 12.6613 26.4024 12.6582C26.8648 12.6037 27.3291 12.6092 27.7933 12.6107C28.0696 12.6116 28.3461 12.6048 28.6222 12.6124C28.9674 12.6219 29.3156 12.618 29.6561 12.6664C29.913 12.703 30.1802 12.7007 30.4274 12.8049C30.4674 12.8217 30.5188 12.8077 30.5638 12.815C30.7344 12.8426 30.9053 12.8693 31.0747 12.9036C31.3252 12.9543 31.575 13.0085 31.8239 13.0664C31.9788 13.1024 32.1336 13.1416 32.2849 13.1907C32.7288 13.335 33.1761 13.4708 33.6126 13.636C34.2268 13.8683 34.8177 14.1573 35.3967 14.4698C35.6575 14.6105 35.9168 14.7553 36.1676 14.9134C36.4339 15.0812 36.6907 15.265 36.9493 15.4455C37.1787 15.6056 37.4053 15.7702 37.632 15.9343C37.6582 15.9533 37.6754 15.9846 37.7004 16.0057C37.8798 16.1569 38.0666 16.2998 38.238 16.4598C38.37 16.583 38.5116 16.6965 38.6258 16.8409C38.6811 16.911 38.7706 16.9518 38.8359 17.0153C38.9884 17.1635 39.1387 17.3143 39.284 17.4697C39.4254 17.6208 39.5659 17.7736 39.6956 17.935C39.9701 18.2766 40.2466 18.6172 40.5047 18.9716C40.7182 19.2646 40.9066 19.5767 41.106 19.8804C41.4282 20.3709 41.7187 20.8801 41.9607 21.4167C42.0649 21.6475 42.1429 21.8913 42.2558 22.1172C42.3552 22.3159 42.4429 22.5159 42.5078 22.7291C42.5962 23.0201 42.7036 23.3051 42.7922 23.596C42.8815 23.8889 42.9676 24.1835 43.0368 24.4818C43.1013 24.7604 43.1426 25.0447 43.1927 25.3267C43.244 25.6153 43.3055 25.9028 43.3405 26.1935C43.373 26.463 43.3624 26.738 43.3959 27.0073C43.4611 27.5317 43.4488 28.0575 43.4453 28.5832C43.4442 28.74 43.41 28.8964 43.3932 29.0532C43.3763 29.2104 43.4299 29.3744 43.3481 29.5258C43.3396 29.5416 43.3448 29.5655 43.3449 29.5856C43.346 29.8502 43.3054 30.1085 43.2513 30.3673C43.2019 30.6034 43.1823 30.8459 43.1435 31.0845C43.1312 31.1602 43.0991 31.2326 43.0688 31.33C42.8378 31.2446 42.6051 31.2439 42.3848 31.326C42.3659 31.2953 42.3519 31.283 42.3537 31.274C42.4141 30.9752 42.4782 30.6773 42.5365 30.3781C42.5616 30.2497 42.5758 30.1191 42.5936 29.9894C42.6105 29.8657 42.6307 29.7423 42.6403 29.618C42.6622 29.3342 42.6889 29.0502 42.6946 28.7659C42.7036 28.3165 42.7039 27.8667 42.6947 27.4173C42.6877 27.0797 42.6725 26.7411 42.6375 26.4055C42.6091 26.1333 42.5164 25.8662 42.5056 25.5946C42.4932 25.2823 42.3674 24.999 42.3397 24.6916C42.3213 24.4874 42.2308 24.2907 42.1801 24.0887C42.0296 23.4886 41.7895 22.9198 41.5902 22.3368C41.5255 22.1475 41.415 21.9744 41.3251 21.7941C41.2035 21.5502 41.0934 21.2993 40.9573 21.0641C40.6745 20.5754 40.3846 20.0905 40.0834 19.6134C39.9619 19.4209 39.8013 19.2542 39.6619 19.0731C39.559 18.9394 39.469 18.7948 39.3601 18.6667C39.1754 18.4494 38.9846 18.2372 38.7887 18.0304C38.5515 17.78 38.3153 17.5274 38.0623 17.2941C37.7873 17.0406 37.4957 16.8054 37.2072 16.5674C36.9768 16.3775 36.7447 16.1889 36.5047 16.012C36.3288 15.8822 36.1388 15.7721 35.9549 15.6534C35.7278 15.5067 35.5077 15.3465 35.2715 15.2171C34.961 15.047 34.6396 14.8971 34.3195 14.746C33.9615 14.5769 33.6051 14.407 33.2287 14.2774C32.9884 14.1946 32.7513 14.095 32.5075 14.0208C32.1654 13.9168 31.8145 13.8419 31.4754 13.7293C31.1868 13.6335 30.8865 13.6079 30.5945 13.5354C30.4328 13.4953 30.2605 13.502 30.0957 13.4719C29.7633 13.4113 29.4245 13.4122 29.0927 13.3676C28.4636 13.2831 27.8357 13.3419 27.2078 13.331C26.9519 13.3265 26.6949 13.3897 26.4383 13.4208C26.3992 13.4255 26.3594 13.4241 26.3199 13.4236C26.0932 13.4213 25.8729 13.4551 25.6555 13.5236C25.5521 13.5563 25.4407 13.5734 25.3323 13.5765C25.1627 13.5813 25.005 13.65 24.8432 13.667C24.6094 13.6917 24.3927 13.7656 24.1725 13.8315C23.7374 13.9617 23.2998 14.087 22.8737 14.244C22.5686 14.3564 22.2591 14.4623 21.974 14.6323C21.7826 14.7465 21.5581 14.8015 21.3614 14.908C21.0167 15.0948 20.6887 15.314 20.3414 15.4951C19.979 15.6842 19.6569 15.9316 19.3276 16.169C19.1179 16.3201 18.9198 16.4879 18.7175 16.6494C18.6205 16.7268 18.5238 16.8047 18.4303 16.8862C18.297 17.0024 18.1653 17.1205 18.0356 17.2408C17.8233 17.438 17.6084 17.6327 17.4037 17.8379C17.2701 17.972 17.1541 18.1243 17.0275 18.2659C16.7794 18.5436 16.5542 18.8403 16.3211 19.1307C16.1163 19.3858 15.9345 19.6542 15.7533 19.9248C15.3802 20.4821 15.0412 21.0593 14.7565 21.6697C14.4437 22.3404 14.1748 23.0285 13.9575 23.7371C13.8518 24.0817 13.7538 24.4288 13.6594 24.7767C13.6303 24.8836 13.6275 24.9978 13.6075 25.1076C13.5588 25.3761 13.5007 25.6429 13.4588 25.9124C13.4305 26.0947 13.4318 26.2818 13.4047 26.4644C13.3648 26.734 13.3839 27.0114 13.3402 27.2744C13.2734 27.6761 13.2905 28.0764 13.3157 28.4711C13.3322 28.7283 13.3293 28.9872 13.3543 29.2435C13.3733 29.438 13.4161 29.6301 13.4473 29.8235C13.4526 29.8562 13.4535 29.8898 13.4546 29.9231C13.4647 30.2189 13.5199 30.5062 13.5964 30.7915C13.6417 30.9605 13.6602 31.1368 13.6985 31.308C13.7622 31.593 13.8282 31.8776 13.901 32.1604C13.9347 32.2915 13.9851 32.4183 14.0307 32.546C14.1702 32.9371 14.3075 33.3291 14.4537 33.7176C14.5018 33.8455 14.5751 33.9634 14.6359 34.0864C14.7686 34.3551 14.8927 34.6286 15.0352 34.8917C15.2055 35.2062 15.3631 35.5275 15.5767 35.8181C15.7722 36.084 15.9354 36.3745 16.1154 36.6525C16.165 36.729 16.22 36.8026 16.2788 36.872C16.3678 36.9771 16.3882 37.0979 16.4099 37.2331C16.4664 37.5856 16.5384 37.9379 16.7023 38.2601C16.7461 38.3464 16.7971 38.4288 16.846 38.5375C16.834 38.5723 16.8209 38.5826 16.8078 38.5929Z" fill="white"/>
<path d="M2.80426 25.9863C2.7363 26.5168 2.79004 27.0337 2.74368 27.5433C2.71819 27.8234 2.68782 28.105 2.71681 28.3788C2.75769 28.765 2.72615 29.152 2.76601 29.5338C2.78885 29.7526 2.76281 29.9781 2.81354 30.1854C2.86901 30.4119 2.79882 30.6507 2.90481 30.8665C2.91811 30.8935 2.90877 30.9326 2.90855 30.9661C2.90697 31.204 2.95084 31.4353 2.99773 31.6672C3.02743 31.8141 3.02535 31.9679 3.05833 32.1137C3.12693 32.4171 3.14331 32.7302 3.24104 33.0288C3.2973 33.2008 3.3163 33.3856 3.35024 33.5649C3.40103 33.8333 3.45788 34.0989 3.54305 34.3599C3.62914 34.6237 3.68074 34.899 3.75285 35.1678C3.78281 35.2794 3.82678 35.3871 3.86739 35.5054C3.72313 35.6221 3.54567 35.6381 3.38694 35.6966C3.0578 35.8179 2.72435 35.9271 2.39211 36.0396C2.07251 36.1478 1.75247 36.2546 1.43204 36.3602C1.34348 36.3894 1.28188 36.3476 1.25662 36.254C1.15355 35.872 1.0474 35.491 0.9458 35.1086C0.856373 34.7721 0.751407 34.4398 0.704228 34.0921C0.682415 33.9314 0.636489 33.7741 0.602759 33.615C0.570322 33.4619 0.538866 33.3087 0.508141 33.1553C0.457093 32.9004 0.403349 32.6461 0.357935 32.3901C0.333818 32.2542 0.341842 32.1106 0.305069 31.9792C0.248104 31.7758 0.28066 31.5627 0.212464 31.3594C0.167509 31.2253 0.16876 31.0737 0.158522 30.9293C0.138366 30.6449 0.139769 30.3581 0.104889 30.0759C0.0424561 29.5706 0.0867686 29.0619 0.044083 28.5591C0.0226976 28.3071 -0.0205671 28.0512 0.0113743 27.8056C0.0728328 27.3331 0.0348279 26.861 0.0599837 26.3898C0.0731758 26.1427 0.12255 25.8977 0.154346 25.6516C0.15861 25.6185 0.154252 25.5845 0.156163 25.551C0.171654 25.2799 0.179162 25.0079 0.206686 24.7381C0.223796 24.5703 0.275212 24.4065 0.304215 24.2396C0.326671 24.1104 0.339895 23.9795 0.35424 23.849C0.372162 23.6859 0.379217 23.5212 0.405202 23.3596C0.437097 23.1612 0.484392 22.9654 0.523724 22.7683C0.551663 22.6282 0.5686 22.4852 0.605859 22.3479C0.713086 21.9526 0.760754 21.544 0.890394 21.1526C1.00072 20.8196 1.0636 20.4705 1.1559 20.1309C1.19982 19.9693 1.26336 19.8132 1.32188 19.6434C1.65829 19.7571 1.98401 19.8688 2.31073 19.9773C2.74798 20.1226 3.18649 20.2639 3.62327 20.4105C3.70645 20.4385 3.78407 20.4837 3.84863 20.5136C3.76262 20.8455 3.68368 21.1534 3.60294 21.4609C3.51199 21.8072 3.41622 22.1523 3.32917 22.4996C3.29583 22.6327 3.2833 22.771 3.25682 22.906C3.21686 23.1098 3.17098 23.3124 3.13144 23.5162C3.10301 23.6628 3.08231 23.8109 3.0554 23.9578C3.02847 24.1049 2.99557 24.2508 2.97 24.3981C2.94647 24.5336 2.92312 24.6696 2.91049 24.8065C2.88743 25.0563 2.87453 25.3071 2.85309 25.5571C2.84135 25.6941 2.82082 25.8304 2.80426 25.9863Z" fill="white"/>
<path d="M54.9831 35.5151C54.8945 35.8034 54.811 36.0755 54.727 36.3493C54.6199 36.422 54.5199 36.3393 54.4364 36.3035C54.2406 36.2196 54.0391 36.1636 53.8371 36.1013C53.4233 35.9735 53.0159 35.8239 52.6051 35.6855C52.5087 35.6531 52.4085 35.6324 52.3116 35.6013C52.2003 35.5656 52.1609 35.4994 52.1952 35.3889C52.27 35.1479 52.3585 34.9112 52.4284 34.6688C52.4911 34.4514 52.5375 34.2289 52.5892 34.0082C52.6308 33.8312 52.6688 33.6533 52.7099 33.4761C52.7348 33.3684 52.7684 33.2624 52.7882 33.1538C52.8419 32.8587 52.8884 32.5622 52.9412 32.2669C52.9893 31.9985 53.0501 31.7322 53.0896 31.4625C53.1193 31.26 53.106 31.0501 53.1445 30.85C53.1955 30.5845 53.1567 30.3091 53.2425 30.0493C53.2465 30.0372 53.2437 30.0227 53.2443 30.0093C53.2602 29.6776 53.287 29.3461 53.29 29.0143C53.2969 28.2564 53.2947 27.4984 53.29 26.7405C53.2891 26.5899 53.2587 26.4396 53.2449 26.2888C53.2318 26.1448 53.2772 25.9943 53.1975 25.8577C53.1945 25.8525 53.1958 25.8446 53.1953 25.8379C53.1768 25.5808 53.1639 25.3232 53.1382 25.067C53.118 24.8656 53.0818 24.6659 53.0531 24.4655C53.0493 24.4391 53.0444 24.4121 53.046 24.3858C53.0605 24.1449 52.9587 23.9245 52.9288 23.6912C52.908 23.5291 52.8814 23.3669 52.8443 23.2079C52.7156 22.6564 52.6386 22.0929 52.4577 21.5532C52.3548 21.2459 52.327 20.9154 52.1959 20.6148C52.1814 20.5816 52.1939 20.5362 52.1939 20.4773C53.0207 20.2059 53.8495 19.9339 54.7029 19.6537C54.7496 19.7724 54.8025 19.8823 54.8363 19.9979C54.9109 20.2528 54.9765 20.5104 55.0444 20.7673C55.0942 20.9558 55.1422 21.1447 55.1904 21.3336C55.2511 21.5718 55.3121 21.8099 55.3711 22.0486C55.3976 22.1559 55.4331 22.2634 55.4408 22.3726C55.459 22.6291 55.5347 22.8721 55.5842 23.1213C55.6401 23.4035 55.655 23.6939 55.6953 23.9797C55.7162 24.1278 55.7532 24.2735 55.783 24.4203C55.7843 24.4269 55.7873 24.4332 55.788 24.4398C55.8074 24.6366 55.825 24.8335 55.8463 25.0301C55.8746 25.2912 55.9137 25.5513 55.9332 25.8129C55.9475 26.0064 55.9185 26.2041 55.9421 26.3957C56.0538 27.3026 55.9644 28.2125 55.9918 29.1204C56.0018 29.4518 55.9326 29.7788 55.926 30.1116C55.9223 30.2992 55.9357 30.5041 55.8835 30.6821C55.8207 30.896 55.8796 31.1144 55.8016 31.3275C55.7429 31.488 55.7618 31.677 55.7386 31.8523C55.7128 32.0463 55.6774 32.2389 55.6481 32.4324C55.6111 32.6775 55.5818 32.924 55.5383 33.1679C55.5086 33.3345 55.4589 33.4973 55.4209 33.6625C55.3775 33.8512 55.3375 34.0408 55.2956 34.23C55.2787 34.3061 55.2604 34.3818 55.2434 34.4579C55.1738 34.7685 55.1237 35.0844 54.9977 35.3798C54.983 35.4144 54.9908 35.459 54.9831 35.5151Z" fill="white"/>
<path d="M7.15722 42.3119C7.27767 42.4745 7.38676 42.6274 7.49851 42.7782C7.63777 42.9662 7.77917 43.1526 7.91978 43.3395C8.01723 43.4691 8.114 43.5993 8.21298 43.7276C8.24925 43.7747 8.29228 43.8162 8.33003 43.8622C8.39236 43.938 8.45177 44.0164 8.51445 44.092C8.62501 44.2253 8.73834 44.3562 8.84813 44.4901C8.91841 44.5759 8.97178 44.6814 9.05518 44.7494C9.19678 44.865 9.30303 45.0121 9.42989 45.1401C9.69074 45.4034 9.93938 45.6794 10.2012 45.9416C10.3851 46.1258 10.5842 46.2941 10.7733 46.4729C10.9241 46.6154 11.0654 46.7687 11.2197 46.907C11.375 47.0462 11.5419 47.1718 11.7022 47.3053C11.8174 47.4013 11.9275 47.5037 12.0445 47.5972C12.2567 47.7669 12.4734 47.9307 12.6861 48.0997C12.7765 48.1715 12.8616 48.2503 12.9677 48.342C12.4805 49.0831 11.9476 49.7857 11.4195 50.5227C11.1917 50.3451 10.9827 50.1821 10.7735 50.0192C10.5791 49.8678 10.3839 49.7176 10.1906 49.565C10.0838 49.4807 9.97771 49.3951 9.87526 49.3053C9.66778 49.1236 9.46182 48.9401 9.2575 48.7547C9.12448 48.634 8.99624 48.5079 8.86441 48.3858C8.75875 48.2879 8.64898 48.1946 8.54487 48.0951C8.49353 48.046 8.45085 47.9875 8.40431 47.9333C8.37946 47.9043 8.35775 47.8716 8.32931 47.8469C8.27546 47.8002 8.21313 47.763 8.16256 47.7132C7.99995 47.5529 7.83738 47.3923 7.68172 47.2252C7.48462 47.0135 7.29265 46.7968 7.10146 46.5795C6.85018 46.2939 6.59398 46.0123 6.35458 45.7166C6.14194 45.454 5.96207 45.1632 5.74372 44.9061C5.58073 44.7142 5.45111 44.5007 5.30198 44.3004C5.09645 44.0244 4.8892 43.7493 4.6946 43.4654C4.53265 43.229 4.38519 42.9822 4.23638 42.7368C4.11803 42.5416 4.00861 42.3409 3.89294 42.144C3.73501 41.8752 3.56196 41.6148 3.41846 41.3383C3.12176 40.7667 2.82169 40.1955 2.55836 39.6076C2.34099 39.1224 2.11015 38.6417 1.94685 38.1309C1.85285 37.8369 1.71357 37.5579 1.58794 37.256C1.7521 37.1935 1.89175 37.1334 2.03565 37.087C2.37024 36.979 2.70834 36.8823 3.04226 36.7723C3.36934 36.6646 3.69324 36.5467 4.01802 36.4318C4.12055 36.3956 4.16553 36.4216 4.20872 36.533C4.37011 36.9492 4.53816 37.3628 4.69681 37.7801C4.89885 38.3114 5.15367 38.8174 5.4056 39.3245C5.57054 39.6566 5.72487 39.9939 5.93247 40.3039C6.10174 40.5567 6.2383 40.832 6.39792 41.0918C6.62242 41.4572 6.85511 41.8174 7.08343 42.1804C7.10759 42.2188 7.12597 42.261 7.15722 42.3119Z" fill="white"/>
<path d="M50.5017 16.4647C50.256 15.9391 49.9684 15.4545 49.6804 14.9711C49.4446 14.5754 49.1915 14.1899 48.935 13.8075C48.7826 13.5802 48.6072 13.369 48.4453 13.1482C48.3451 13.0116 48.2553 12.8669 48.1524 12.7326C48.0208 12.5605 47.8797 12.396 47.7445 12.2267C47.6266 12.0791 47.5112 11.9296 47.395 11.7807C47.383 11.7653 47.3743 11.747 47.3613 11.7326C47.1717 11.5229 46.9805 11.3147 46.7924 11.1036C46.7455 11.0509 46.71 10.9877 46.6662 10.9319C46.5359 10.7655 46.3359 10.6723 46.2249 10.481C46.1818 10.4069 46.0837 10.3681 46.0198 10.3037C45.9657 10.2492 45.9325 10.1724 45.8766 10.1204C45.6129 9.87467 45.3424 9.6364 45.0785 9.39086C44.9112 9.23525 44.7559 9.06609 44.5864 8.91324C44.4617 8.80078 44.32 8.70803 44.1906 8.60071C44.0697 8.5005 43.9597 8.38617 43.8363 8.28961C43.6321 8.12994 43.4234 7.97602 43.212 7.82657C43.0779 7.7318 43.0618 7.72013 43.1448 7.57744C43.2361 7.42054 43.3438 7.27319 43.4486 7.12487C43.5611 6.9657 43.6795 6.81091 43.7938 6.65299C43.9615 6.42112 44.1278 6.18821 44.2946 5.95565C44.3603 5.86399 44.4251 5.77157 44.4916 5.68048C44.5296 5.62841 44.5701 5.57831 44.6214 5.512C49.19 8.94108 52.4696 13.3413 54.4342 18.7745C54.0189 18.921 53.6059 19.0966 53.1771 19.2098C52.7447 19.3238 52.3342 19.4999 51.8847 19.6359C51.4879 18.5499 51.041 17.4944 50.5017 16.4647Z" fill="white"/>
<path d="M53.6862 39.1841C53.527 39.5306 53.3784 39.8655 53.2137 40.1921C52.9797 40.6562 52.7446 41.1204 52.4899 41.5729C52.2472 42.0039 51.9793 42.4203 51.7213 42.8423C51.5585 43.1086 51.4011 43.3789 51.2269 43.6373C51.0741 43.8641 50.9011 44.0768 50.7373 44.2959C50.6789 44.374 50.6194 44.4513 50.5636 44.5313C50.4484 44.6962 50.3428 44.8687 50.2196 45.0269C50.0386 45.2595 49.8461 45.4826 49.6576 45.7091C49.4691 45.9356 49.2862 46.1674 49.0891 46.3859C48.7683 46.7415 48.435 47.0852 48.1127 47.4394C47.8171 47.7642 47.4923 48.0585 47.1882 48.3746C47.017 48.5526 46.8126 48.6972 46.6254 48.8595C46.5485 48.9262 46.4804 49.0034 46.4035 49.0701C46.1721 49.2705 45.9412 49.4716 45.7049 49.6659C45.431 49.8909 45.1526 50.1104 44.8738 50.3292C44.7982 50.3885 44.719 50.4673 44.6325 50.4821C44.5211 50.5011 44.4968 50.3583 44.436 50.2897C44.3242 50.1638 44.2413 50.0116 44.1428 49.8729C44.0265 49.7091 43.9044 49.5496 43.7887 49.3854C43.688 49.2424 43.5933 49.0951 43.4947 48.9506C43.4359 48.8642 43.377 48.7777 43.3138 48.6946C43.2346 48.5906 43.1511 48.49 43.0654 48.383C43.1443 48.2014 43.326 48.1304 43.4616 48.0125C43.6531 47.846 43.8632 47.7019 44.058 47.5391C44.2988 47.3379 44.5251 47.1184 44.7698 46.9226C45.4824 46.3529 46.0855 45.6667 46.7255 45.0201C46.9225 44.8211 47.0856 44.5876 47.2688 44.3739C47.4266 44.1897 47.5966 44.0161 47.7505 43.8286C47.8909 43.6577 48.0172 43.4746 48.1491 43.2964C48.3311 43.0505 48.5149 42.8058 48.6933 42.5571C48.7836 42.4312 48.8637 42.2975 48.9486 42.1675C49.0584 41.9992 49.1707 41.8325 49.2779 41.6624C49.4547 41.3821 49.6286 41.0998 49.8029 40.8179C49.9431 40.5913 50.0902 40.3686 50.2193 40.1357C50.3383 39.921 50.435 39.6937 50.5461 39.4744C50.669 39.2318 50.8 38.9935 50.9219 38.7504C50.9773 38.6398 51.0198 38.5224 51.0674 38.4078C51.127 38.2644 51.1748 38.1147 51.2467 37.9782C51.4897 37.5173 51.6346 37.0155 51.8353 36.5371C51.8499 36.5023 51.851 36.4616 51.8637 36.3962C52.7226 36.68 53.5697 36.9599 54.4323 37.245C54.3253 37.5322 54.2203 37.8164 54.1134 38.0998C54.0216 38.3431 53.929 38.5861 53.8342 38.8281C53.7892 38.943 53.738 39.0553 53.6862 39.1841Z" fill="white"/>
<path d="M4.45712 18.818C4.37233 19.0515 4.29082 19.2697 4.2061 19.4866C4.18744 19.5344 4.15738 19.5775 4.1307 19.6262C3.2928 19.3463 2.45929 19.068 1.59843 18.7804C1.89934 17.923 2.25368 17.0689 2.64025 16.2302C3.02804 15.3888 3.46609 14.5728 3.93835 13.777C4.41328 12.9767 4.92094 12.1967 5.47486 11.4524C6.03232 10.7033 6.61173 9.96809 7.24825 9.28649C7.89092 8.59832 8.54158 7.91608 9.2469 7.29255C9.94361 6.67661 10.6423 6.0627 11.417 5.52068C11.4827 5.60173 11.5562 5.68256 11.6187 5.77144C11.8532 6.10501 12.0818 6.44291 12.3172 6.77583C12.4755 6.99964 12.6415 7.2177 12.8038 7.43858C12.8229 7.46463 12.8408 7.49172 12.8578 7.51926C12.9862 7.72704 12.9801 7.72642 12.7762 7.86411C12.5893 7.99035 12.4108 8.13014 12.2332 8.27012C11.9888 8.4628 11.7479 8.66015 11.5076 8.85818C11.4568 8.89997 11.4182 8.95674 11.369 9.00075C11.1157 9.22716 10.8546 9.44485 10.6082 9.67874C10.3585 9.9158 10.1197 10.1651 9.8819 10.4149C9.69619 10.61 9.53287 10.8291 9.3355 11.0103C9.04042 11.2811 8.81773 11.6166 8.53504 11.8975C8.45874 11.9734 8.41478 12.082 8.34856 12.1697C8.3002 12.2338 8.23625 12.2854 8.18522 12.3477C8.03661 12.529 7.88301 12.7069 7.74603 12.8971C7.52591 13.2028 7.31757 13.5173 7.10422 13.828C7.04182 13.9189 6.9829 14.0126 6.91619 14.1001C6.69974 14.3839 6.53333 14.6995 6.35282 15.0064C6.29295 15.1082 6.21838 15.2008 6.15698 15.3018C6.08709 15.4166 6.02158 15.5345 5.95907 15.6538C5.65965 16.225 5.35628 16.7942 5.06631 17.3704C4.95035 17.6008 4.86632 17.8478 4.76572 18.0864C4.66488 18.3256 4.56152 18.5637 4.45712 18.818Z" fill="white"/>
<path d="M16.9399 5.30286C16.7412 5.39811 16.5499 5.47484 16.3688 5.57138C16.1026 5.71329 15.844 5.86993 15.5815 6.01916C15.3967 6.12426 15.2079 6.22245 15.026 6.33261C14.6572 6.55593 14.2912 6.78385 13.9262 7.01356C13.8667 7.05102 13.8186 7.10732 13.7436 7.17421C13.6763 7.09408 13.6105 7.02409 13.5541 6.94698C13.351 6.66942 13.1496 6.39055 12.9505 6.11003C12.8154 5.91978 12.686 5.72541 12.5526 5.53388C12.4746 5.42183 12.3915 5.3134 12.3152 5.20019C12.2655 5.12646 12.2239 5.04708 12.1769 4.9673C12.6295 4.6675 13.0551 4.37594 13.4906 4.10063C13.7567 3.93246 14.0353 3.78427 14.3128 3.63592C14.8635 3.34151 15.4076 3.03132 15.9734 2.77042C16.3221 2.60966 16.6497 2.40078 17.0272 2.29653C17.2777 2.22737 17.5064 2.08037 17.7509 1.98394C18.1369 1.83167 18.5266 1.6887 18.9173 1.54927C19.1878 1.45274 19.4616 1.36558 19.7357 1.28022C19.9552 1.21186 20.1775 1.15271 20.3985 1.08906C20.46 1.07134 20.5208 1.05096 20.5824 1.03378C20.9338 0.935853 21.2845 0.838244 21.6453 0.77707C21.9085 0.73243 22.1648 0.646399 22.4265 0.5906C22.652 0.542542 22.8814 0.514178 23.1081 0.471504C23.3341 0.428952 23.5589 0.37943 23.7842 0.332981C23.7969 0.330357 23.8096 0.326755 23.8224 0.32551C24.0217 0.306221 24.2214 0.291297 24.4201 0.267093C24.6308 0.241424 24.8404 0.207002 25.0505 0.176452C25.057 0.175511 25.0635 0.174973 25.0701 0.17449C25.322 0.155835 25.5762 0.153253 25.8252 0.114954C26.2351 0.0519147 26.646 0.0732119 27.0567 0.0615013C27.2105 0.0571148 27.3636 0.0224137 27.5282 0C27.5669 0.154394 27.5721 0.286225 27.5521 0.42148C27.5444 0.474013 27.5491 0.528551 27.5491 0.582176C27.549 1.08519 27.5472 1.58821 27.5502 2.09121C27.5511 2.23595 27.5272 2.3826 27.5908 2.52479C27.6126 2.5736 27.5943 2.6411 27.5943 2.72438C27.1886 2.73903 26.791 2.73683 26.3968 2.77321C26.1149 2.79923 25.8284 2.79613 25.5509 2.86795C25.5322 2.8728 25.5118 2.87102 25.4921 2.87231C25.2457 2.88847 24.9985 2.89655 24.7532 2.9236C24.5884 2.94178 24.4269 2.98956 24.2631 3.01893C24.1359 3.04172 24.0079 3.0657 23.8795 3.07296C23.6214 3.08753 23.3747 3.15526 23.1263 3.21829C23.0267 3.24358 22.9248 3.26085 22.8233 3.27742C22.5393 3.32375 22.2615 3.39735 21.9816 3.46236C21.627 3.5447 21.2804 3.65476 20.9273 3.74079C20.7483 3.78441 20.576 3.85637 20.4002 3.91387C20.3339 3.93554 20.2651 3.94939 20.1993 3.97221C19.8192 4.10398 19.4382 4.23304 19.0604 4.37149C18.7183 4.49689 18.3766 4.6249 18.041 4.7672C17.7698 4.88223 17.5059 5.01631 17.2428 5.1501C17.1464 5.19912 17.0256 5.19704 16.9399 5.30286Z" fill="white"/>
<path d="M40.182 53.1963C39.8241 53.4057 39.4534 53.5498 39.0854 53.7007C38.7057 53.8564 38.3318 54.0269 37.9503 54.1779C37.6837 54.2833 37.4086 54.3666 37.1374 54.4601C36.7515 54.5931 36.3676 54.7328 35.979 54.8571C35.7664 54.9251 35.5455 54.9655 35.3292 55.0219C35.0953 55.0828 34.8638 55.1543 34.6287 55.2096C34.3607 55.2727 34.0896 55.3222 33.8202 55.3793C33.6578 55.4137 33.496 55.4512 33.334 55.4877C33.1966 55.5187 33.0607 55.5591 32.9219 55.5799C32.6422 55.6219 32.3611 55.6532 32.0806 55.6893C31.8316 55.7213 31.58 55.74 31.3344 55.7896C30.9896 55.8593 30.6401 55.8635 30.2941 55.9032C30.0393 55.9325 29.7814 55.8974 29.5356 55.9477C29.1819 56.02 28.8306 55.9649 28.4678 55.9953C28.4619 55.9426 28.4526 55.8982 28.4526 55.8538C28.4517 55.0687 28.4515 54.2837 28.4523 53.4986C28.4525 53.2888 28.4541 53.2888 28.6634 53.2873C28.6897 53.2871 28.7161 53.2881 28.7424 53.2871C29.1799 53.2715 29.6176 53.2583 30.055 53.2386C30.2363 53.2305 30.4194 53.2223 30.5973 53.1894C30.8769 53.1377 31.1565 53.0995 31.4402 53.0792C31.6638 53.0631 31.8862 53.0224 32.1078 52.9847C32.2458 52.9612 32.3807 52.9196 32.5182 52.8924C32.6381 52.8686 32.76 52.8553 32.8805 52.8338C32.9552 52.8205 33.0288 52.8004 33.103 52.784C33.3341 52.7329 33.5662 52.6861 33.7961 52.6302C34.1237 52.5505 34.4516 52.471 34.7761 52.3791C35.175 52.2662 35.5715 52.1443 35.967 52.0193C36.3314 51.9041 36.6954 51.7866 37.0549 51.6565C37.2708 51.5784 37.4738 51.4633 37.6894 51.3842C38.0445 51.2539 38.3778 51.077 38.7165 50.9111C39.092 50.7272 39.4831 50.5709 39.841 50.3566C40.2289 50.1244 40.6435 49.9463 41.0223 49.6927C41.3692 49.4605 41.7353 49.2554 42.0778 49.0136C42.151 48.9619 42.2222 48.9075 42.3157 48.8387C42.3573 48.9034 42.3959 48.9673 42.4384 49.0285C42.6016 49.2636 42.7663 49.4977 42.93 49.7324C43.1197 50.0044 43.2983 50.2853 43.5023 50.5455C43.629 50.7069 43.7334 50.8805 43.8627 51.0532C43.5134 51.2847 43.1912 51.5288 42.8311 51.7185C42.5762 51.8528 42.3426 52.0292 42.0997 52.187C42.0833 52.1976 42.0686 52.2114 42.0515 52.2206C41.5333 52.5005 41.0154 52.7812 40.4958 53.0588C40.3996 53.1102 40.2966 53.1487 40.182 53.1963Z" fill="white"/>
<path d="M37.2179 1.58482C37.508 1.69535 37.7841 1.79752 38.0584 1.90453C38.3743 2.02776 38.6943 2.13789 39.001 2.2882C39.4041 2.48573 39.8301 2.63571 40.2274 2.84369C40.5579 3.01669 40.9109 3.14604 41.2181 3.3679C41.3317 3.44998 41.4732 3.4906 41.5967 3.56003C42.1598 3.87668 42.714 4.20817 43.2462 4.5776C43.4362 4.70948 43.641 4.81917 43.8459 4.9431C43.8459 4.96612 43.8563 4.99966 43.8442 5.01735C43.7455 5.16249 43.6429 5.30481 43.541 5.44773C43.4051 5.63844 43.2682 5.82844 43.133 6.01963C43.0094 6.19439 42.8876 6.3705 42.7646 6.54571C42.6372 6.7271 42.51 6.90868 42.3808 7.08869C42.3624 7.11424 42.3328 7.13137 42.3034 7.15673C38.1116 4.31463 33.4996 2.84964 28.4652 2.72154C28.4652 1.82236 28.4652 0.933664 28.4652 0.0176344C28.6241 0.0308829 28.7896 -0.00843441 28.9567 0.0454445C29.0052 0.0610833 29.0593 0.0626129 29.111 0.0635516C29.2425 0.0659431 29.3743 0.0590853 29.5056 0.0653942C29.8236 0.0806736 30.1442 0.0809372 30.4578 0.12829C30.6192 0.152651 30.7788 0.160398 30.9395 0.176098C31.1443 0.196122 31.3469 0.238365 31.5512 0.265401C31.7302 0.289089 31.9112 0.298634 32.0896 0.325798C32.3749 0.369233 32.659 0.4205 32.9432 0.471403C33.2205 0.521096 33.5012 0.559093 33.7729 0.631594C33.9574 0.68083 34.1466 0.709441 34.3312 0.762891C34.5118 0.815174 34.7083 0.83583 34.8951 0.884202C35.0187 0.916188 35.1417 0.950439 35.2647 0.984676C35.5662 1.06859 35.8692 1.14724 36.1683 1.23907C36.4424 1.32321 36.712 1.42246 36.9841 1.51368C37.0563 1.53789 37.1301 1.55708 37.2179 1.58482Z" fill="white"/>
<path d="M13.096 51.6788C12.8755 51.5307 12.664 51.3948 12.4552 51.2547C12.3547 51.1873 12.2593 51.1121 12.1607 51.0397C12.6864 50.3037 13.2001 49.5846 13.7155 48.8631C17.92 51.7076 22.5393 53.1963 27.5926 53.3026C27.5778 53.4215 27.5516 53.5363 27.551 53.6512C27.547 54.3288 27.548 55.0064 27.5502 55.684C27.5505 55.7744 27.5675 55.8648 27.5784 55.9719C27.5501 55.9766 27.5085 55.9889 27.4668 55.9894C27.3024 55.9918 27.1339 56.0141 26.9743 55.9857C26.6166 55.9221 26.2562 55.968 25.9007 55.9317C25.7195 55.9132 25.5269 55.9349 25.3607 55.8817C25.1576 55.8167 24.9412 55.9041 24.7513 55.7905C24.7314 55.7786 24.6997 55.788 24.6735 55.7859C24.4735 55.7699 24.2717 55.7654 24.074 55.7342C23.8346 55.6965 23.5992 55.6326 23.3608 55.5871C23.2281 55.5618 23.0922 55.5547 22.9588 55.5327C22.7131 55.4923 22.4664 55.4618 22.2256 55.3885C22.0483 55.3346 21.8597 55.3205 21.6781 55.2797C21.517 55.2435 21.3589 55.193 21.1987 55.1521C20.9581 55.0907 20.7154 55.0371 20.4761 54.971C20.2364 54.9049 19.9987 54.8308 19.762 54.7543C19.4161 54.6424 19.0699 54.5311 18.7275 54.4087C18.4142 54.2968 18.1055 54.1716 17.7955 54.0502C17.6409 53.9897 17.4873 53.9264 17.3345 53.8612C17.0747 53.7504 16.8156 53.638 16.557 53.5247C16.3043 53.4139 16.0479 53.3107 15.8016 53.1867C15.498 53.034 15.2102 52.8466 14.901 52.708C14.7658 52.6474 14.6384 52.578 14.5121 52.5041C14.1892 52.3154 13.8692 52.1216 13.5464 51.9327C13.4016 51.848 13.253 51.7702 13.096 51.6788Z" fill="white"/>
<path d="M36.4052 21.648C36.262 21.7203 36.1677 21.8213 36.083 21.9649C36.3439 22.0223 36.5163 22.1873 36.6873 22.3583C36.8293 22.5002 36.905 22.6792 36.9713 22.8612C37.0494 23.0756 37.1231 23.3002 37.0943 23.5301C37.0549 23.8459 37.0116 24.173 36.8378 24.443C36.6992 24.6584 36.5487 24.8716 36.3028 25.0006C36.0751 25.1202 35.8616 25.2651 35.6058 25.318C35.4371 25.3529 35.2718 25.3962 35.0977 25.4137C34.2206 25.5017 33.3421 25.4368 32.4646 25.4578C32.3997 25.4593 32.3348 25.458 32.2441 25.458C32.2295 25.2852 32.2041 25.1242 32.2039 24.9631C32.2012 22.9848 32.2021 21.0065 32.2021 19.0282C32.2021 18.9545 32.2021 18.8809 32.2021 18.7907C32.2552 18.7863 32.3047 18.7785 32.3542 18.7785C33.2419 18.7778 34.1297 18.7737 35.0173 18.781C35.228 18.7828 35.4372 18.8268 35.63 18.927C35.6752 18.9505 35.7248 18.9664 35.7739 18.98C35.9569 19.0308 36.1096 19.1264 36.2495 19.26C36.4135 19.4166 36.5695 19.5724 36.6664 19.7846C36.7406 19.9472 36.7922 20.1125 36.7944 20.2923C36.7957 20.3928 36.7834 20.495 36.7969 20.5937C36.8262 20.8064 36.735 20.997 36.6826 21.1882C36.6382 21.3505 36.5075 21.4883 36.4052 21.648ZM35.4003 23.7264C35.4873 23.5704 35.4449 23.3996 35.447 23.2361C35.4511 22.9105 35.1856 22.6484 34.8665 22.6475C34.5972 22.6468 34.328 22.6474 34.0587 22.6474C33.9754 22.6474 33.8921 22.6474 33.8052 22.6474C33.8052 23.1354 33.8052 23.6003 33.8052 24.0715C33.8404 24.0763 33.8654 24.0827 33.8904 24.0827C34.268 24.0832 34.6475 24.1063 35.02 24.0248C35.1028 24.0067 35.1798 23.9483 35.252 23.8973C35.3049 23.86 35.3455 23.8046 35.4003 23.7264ZM33.7939 21.2527C33.8182 21.2883 33.8515 21.3579 33.8653 21.3541C34.0057 21.3154 34.1333 21.4116 34.2733 21.3832C34.4176 21.354 34.5655 21.3374 34.7126 21.3292C34.943 21.3163 35.1062 21.2194 35.1637 20.9819C35.185 20.8941 35.1969 20.802 35.1991 20.7114C35.2083 20.3377 34.9906 20.1434 34.66 20.1502C34.4242 20.155 34.1882 20.1503 33.9523 20.1518C33.9026 20.1521 33.8529 20.1607 33.7938 20.1663C33.7938 20.5266 33.7938 20.8733 33.7939 21.2527Z" fill="white"/>
<path d="M30.748 23.3133C30.689 23.511 30.689 23.7043 30.5996 23.8777C30.5015 24.0679 30.432 24.2733 30.337 24.4653C30.3032 24.5335 30.228 24.5793 30.1769 24.6399C29.9263 24.9371 29.6304 25.1652 29.2696 25.312C29.0168 25.415 28.7581 25.4676 28.4912 25.5124C28.3091 25.543 28.1302 25.5473 27.9489 25.5554C27.7331 25.5651 27.5288 25.4989 27.3194 25.4716C27.1106 25.4444 26.9171 25.3736 26.7364 25.2899C26.3577 25.1146 26.0375 24.8583 25.7808 24.5081C25.5817 24.2366 25.4774 23.9419 25.394 23.6241C25.3245 23.3596 25.2992 23.0951 25.2996 22.8237C25.3016 21.5556 25.3005 20.2875 25.3005 19.0194C25.3005 18.9468 25.3005 18.8741 25.3005 18.7887C25.3688 18.7847 25.4257 18.7792 25.4827 18.7783C25.9219 18.7714 26.3612 18.7656 26.8004 18.7588C26.8622 18.7579 26.8982 18.7826 26.8987 18.8491C26.899 18.9028 26.8993 18.9565 26.8993 19.0102C26.8993 20.3722 26.8988 21.7342 26.8996 23.0962C26.8999 23.5056 27.1424 23.8885 27.5218 24.0057C27.7804 24.0855 28.0605 24.1549 28.3384 24.0365C28.4015 24.0096 28.4814 24.0242 28.5452 23.9983C28.8165 23.8883 29.0101 23.6944 29.1187 23.4156C29.1279 23.3917 29.1456 23.369 29.1476 23.3448C29.1672 23.1151 29.1986 22.8854 29.1996 22.6555C29.2047 21.4411 29.202 20.2267 29.202 19.0123C29.202 18.94 29.202 18.8677 29.202 18.7871C29.7209 18.7871 30.2241 18.7871 30.7481 18.7871C30.7481 20.2935 30.7481 21.794 30.748 23.3133Z" fill="white"/>
<path d="M19.604 24.8164C19.604 22.7986 19.604 20.801 19.604 18.778C19.6736 18.778 19.7369 18.778 19.8002 18.778C20.6942 18.778 21.5884 18.7871 22.4821 18.7724C22.7526 18.768 22.996 18.849 23.225 18.9556C23.4315 19.0518 23.6375 19.1695 23.7969 19.3557C24.0685 19.6732 24.2663 20.0207 24.3553 20.4379C24.4345 20.8093 24.374 21.1809 24.3971 21.5514C24.2662 21.946 24.1679 22.3483 23.8649 22.6678C23.6421 22.9027 23.3983 23.0874 23.1107 23.2165C23.0022 23.2652 22.8824 23.2904 22.7658 23.3173C22.3326 23.4173 21.8927 23.3449 21.4563 23.3656C21.3785 23.3693 21.3003 23.3661 21.2028 23.3661C21.2028 24.0642 21.2028 24.7507 21.2028 25.4474C20.6668 25.4474 20.1504 25.4474 19.62 25.4474C19.5845 25.2464 19.6133 25.0405 19.604 24.8164ZM22.56 20.3429C22.4196 20.2179 22.2673 20.1352 22.0698 20.1486C21.8869 20.161 21.7026 20.1513 21.519 20.1513C21.4163 20.1513 21.3136 20.1513 21.2078 20.1513C21.2078 20.7747 21.2078 21.3735 21.2078 21.9904C21.5929 21.9769 21.9729 22.0482 22.3396 21.932C22.4542 21.8957 22.5752 21.8014 22.6402 21.6986C22.75 21.5251 22.8468 21.3328 22.8066 21.1068C22.7962 21.0485 22.8001 20.9862 22.8058 20.9266C22.8277 20.6978 22.7363 20.5171 22.56 20.3429Z" fill="white"/>
<path d="M36.3466 31.3286C36.123 31.6185 35.9018 31.8931 35.6831 32.1699C35.5576 32.3288 35.4485 32.5036 35.3077 32.6464C35.244 32.711 35.123 32.7298 35.0247 32.7424C34.926 32.755 34.8868 32.6644 34.8477 32.5848C34.6815 32.2457 34.5198 31.904 34.3425 31.5709C34.1696 31.246 34.0182 30.9096 33.8216 30.5966C33.72 30.4348 33.665 30.2428 33.5848 30.0665C33.558 30.0075 33.5156 29.9562 33.4853 29.8987C33.4471 29.8265 33.414 29.7515 33.3769 29.6739C33.482 29.641 33.5595 29.6115 33.6395 29.593C33.8047 29.5547 33.9465 29.602 34.0647 29.7262C34.179 29.8463 34.2917 29.9681 34.4109 30.083C34.6448 30.3083 34.8827 30.5294 35.1347 30.7671C35.2391 30.7032 35.3531 30.6454 35.454 30.5693C35.739 30.3542 36.0185 30.1316 36.3003 29.9122C36.4399 29.8035 36.5791 29.6942 36.7199 29.587C36.9421 29.4178 37.1653 29.2499 37.3886 29.0821C37.4041 29.0705 37.4303 29.0692 37.44 29.055C37.551 28.8922 37.7312 28.9101 37.8902 28.8737C37.9953 28.8497 38.1012 28.8291 38.2397 28.8001C38.211 28.8775 38.2043 28.9297 38.1767 28.965C38.0236 29.1605 37.8621 29.3491 37.7101 29.5454C37.5468 29.7563 37.3938 29.9756 37.2308 30.1868C37.0788 30.3836 36.9174 30.5728 36.7641 30.7685C36.6234 30.9482 36.4878 31.1321 36.3466 31.3286Z" fill="white"/>
<path d="M28.6004 27.2373C28.6005 27.1375 28.6005 27.057 28.6007 26.9764C28.6009 26.8787 28.6448 26.8288 28.7449 26.8303C28.9093 26.8328 29.0739 26.8282 29.2383 26.8319C29.369 26.8348 29.3945 26.8643 29.401 27.0004C29.4029 27.0406 29.4014 27.0809 29.4014 27.1212C29.4014 27.6847 29.3997 28.2483 29.4021 28.8119C29.4032 29.0851 29.3456 29.3388 29.2287 29.5877C29.1336 29.7901 28.9707 29.921 28.8072 30.0354C28.5207 30.2359 28.1791 30.2876 27.8394 30.2431C27.5597 30.2066 27.3037 30.1059 27.0752 29.9044C26.85 29.7058 26.7427 29.4813 26.6871 29.192C26.6539 29.0191 26.6503 28.8515 26.6489 28.6814C26.6445 28.138 26.6473 27.5945 26.6473 27.051C26.6473 26.9854 26.6473 26.9197 26.6473 26.8314C26.8849 26.8314 27.1065 26.8315 27.328 26.8313C27.4003 26.8313 27.436 26.8747 27.445 26.9412C27.4512 26.9874 27.4479 27.0349 27.4479 27.0819C27.448 27.7126 27.4553 28.3434 27.444 28.9739C27.44 29.1987 27.5511 29.3455 27.7084 29.4531C27.7964 29.5134 27.9283 29.5272 28.0398 29.5253C28.1374 29.5237 28.236 29.4757 28.331 29.4397C28.5256 29.3658 28.5994 29.2056 28.6003 29.0077C28.6029 28.424 28.6007 27.8403 28.6004 27.2373Z" fill="white"/>
<path d="M17.8358 39.3929C18.0382 39.4727 18.2366 39.5538 18.457 39.588C18.6254 39.6141 18.793 39.6102 18.9582 39.6346C19.0468 39.6477 19.1283 39.7183 19.21 39.768C19.2429 39.7881 19.267 39.8229 19.2966 39.8493C19.3633 39.909 19.4726 39.9577 19.4887 40.0288C19.5151 40.1454 19.4819 40.2762 19.4723 40.4009C19.4683 40.4532 19.4567 40.505 19.4547 40.5574C19.4516 40.635 19.4539 40.7129 19.4539 40.8036C19.4064 40.7939 19.3778 40.7957 19.3583 40.7829C19.1589 40.6522 18.9767 40.4978 18.7715 40.3722C18.5581 40.2417 18.3769 40.0555 18.1853 39.8892C18.022 39.7476 17.8646 39.599 17.7025 39.4559C17.6791 39.4352 17.6443 39.428 17.6145 39.391C17.6602 39.363 17.706 39.3587 17.7519 39.3543C17.7519 39.3543 17.757 39.3555 17.7619 39.3695C17.7898 39.3865 17.8128 39.3897 17.8358 39.3929Z" fill="white"/>
<path d="M17.7471 39.3409C17.706 39.3587 17.6602 39.363 17.6068 39.3796C17.4801 39.2813 17.361 39.171 17.2483 39.0414C17.2547 39.0222 17.2662 39.0129 17.2662 39.0129C17.3722 39.0963 17.4758 39.1834 17.5856 39.2613C17.6309 39.2935 17.6896 39.306 17.7471 39.3409Z" fill="white"/>
<path d="M16.8139 38.6054C16.8209 38.5826 16.834 38.5723 16.8523 38.5504C16.9901 38.6886 17.1228 38.8383 17.2608 39.0005C17.2662 39.0129 17.2547 39.0222 17.249 39.027C17.0828 38.9144 16.9405 38.7776 16.8139 38.6054Z" fill="white"/>
<path d="M17.8306 39.3824C17.8128 39.3897 17.7898 39.3865 17.7625 39.3721C17.7806 39.3645 17.803 39.3682 17.8306 39.3824Z" fill="white"/>
<path d="M13.257 15.0002C13.2104 14.9853 13.1819 14.9618 13.1513 14.9588C12.9514 14.939 12.7511 14.9235 12.5508 14.907C12.5312 14.9054 12.5075 14.9139 12.4923 14.9054C12.3545 14.8289 12.2404 14.9112 12.1112 14.9415C11.9862 14.9707 12.0005 15.0916 11.8926 15.1272C12.1104 15.3297 12.3096 15.5145 12.5082 15.6998C12.5371 15.7267 12.5776 15.7517 12.5878 15.7854C12.5994 15.8239 12.5935 15.8763 12.5761 15.9133C12.5563 15.9555 12.5173 15.9893 12.4833 16.0233C12.3122 16.1945 12.2834 16.246 12.0937 16.0456C11.959 15.9033 11.7865 15.7959 11.6625 15.6457C11.5188 15.4714 11.3334 15.3468 11.1867 15.1762C11.0513 15.0187 10.8779 14.8952 10.7217 14.7562C10.6855 14.7242 10.6498 14.6915 10.6159 14.657C10.5293 14.569 10.5224 14.5113 10.5972 14.425C10.7493 14.2492 10.9052 14.077 11.0588 13.9025C11.1775 13.7677 11.2923 13.6291 11.4137 13.4969C11.596 13.2984 11.9795 13.2639 12.221 13.4168C12.5597 13.6313 12.6225 13.9546 12.5032 14.3056C12.4949 14.3301 12.4863 14.3545 12.4714 14.3974C12.9145 14.3481 13.3266 14.4513 13.738 14.5611C13.645 14.6829 13.5541 14.802 13.4634 14.9212C13.4151 14.9847 13.3528 15.0131 13.257 15.0002ZM11.2912 14.5625C11.3848 14.6543 11.4785 14.7462 11.5764 14.8422C11.6423 14.7801 11.704 14.7304 11.7556 14.6716C11.8457 14.5688 11.925 14.456 12.0172 14.3554C12.1465 14.2143 12.1425 14.0821 11.992 13.9112C11.8969 13.8032 11.7661 13.799 11.6388 13.9295C11.4716 14.1009 11.3212 14.2893 11.1546 14.4807C11.203 14.5103 11.2345 14.5295 11.2912 14.5625Z" fill="black"/>
<path d="M32.9026 8.44658C32.9605 8.60007 33.0169 8.73747 33.0626 8.87845C33.0856 8.94945 33.0761 8.98638 32.9769 8.95643C32.8425 8.91587 32.6983 8.91067 32.5601 8.88127C32.5199 8.87272 32.4674 8.84167 32.4523 8.8067C32.3807 8.64009 32.325 8.46635 32.2539 8.29944C32.1879 8.14424 32.1269 7.98187 32.0317 7.84589C31.9398 7.71461 31.7907 7.65593 31.623 7.66967C31.5691 8.00437 31.5164 8.33129 31.4623 8.66712C31.2759 8.63395 31.1145 8.60522 30.9613 8.57796C30.9544 8.55244 30.9502 8.54561 30.9513 8.53976C31.0114 8.20787 31.0733 7.87629 31.1319 7.54413C31.1569 7.40286 31.1743 7.26023 31.1971 7.11855C31.2137 7.0156 31.2341 6.91331 31.2515 6.81051C31.2831 6.62459 31.3151 6.43873 31.3442 6.25239C31.3585 6.16031 31.415 6.12072 31.4964 6.13741C31.7087 6.18092 31.9186 6.23698 32.1308 6.28116C32.3192 6.32038 32.5094 6.35055 32.6989 6.38439C33.0104 6.44003 33.1971 6.66488 33.1978 6.98655C33.198 7.08035 33.2165 7.18053 33.1909 7.26674C33.1206 7.50334 32.9931 7.68896 32.7205 7.71501C32.6677 7.72006 32.6179 7.75861 32.5862 7.77292C32.6932 8.00009 32.7949 8.21603 32.9026 8.44658ZM31.7038 7.12745C31.6974 7.18754 31.6817 7.24884 31.7734 7.25954C31.8875 7.27285 32.0074 7.27576 32.1128 7.31578C32.2745 7.37712 32.4304 7.34856 32.5839 7.34375C32.6104 7.28179 32.631 7.23365 32.6516 7.1855C32.7286 7.00544 32.7055 6.94909 32.5465 6.84924C32.321 6.70767 32.0733 6.70435 31.8142 6.69638C31.7833 6.83775 31.7544 6.96966 31.7038 7.12745Z" fill="black"/>
<path d="M15.2208 13.1243C15.0865 13.2494 14.9989 13.4092 14.8047 13.4632C14.2907 12.8497 13.7695 12.2275 13.2374 11.5923C13.694 11.1946 14.1415 10.8049 14.589 10.415C14.7519 10.5187 14.7555 10.5229 14.8551 10.7332C14.5998 11.0515 14.2471 11.2724 13.9582 11.5599C13.9926 11.7383 14.1154 11.837 14.2338 11.9423C14.4188 11.9046 14.4999 11.7313 14.6336 11.6293C14.8181 11.4886 14.9888 11.329 15.1557 11.1858C15.2202 11.2594 15.2707 11.3183 15.3225 11.3759C15.431 11.4963 15.4236 11.5788 15.2986 11.6735C15.2164 11.7358 15.1358 11.8004 15.0571 11.8672C14.9082 11.9939 14.7674 12.1318 14.6103 12.2467C14.5495 12.2911 14.5428 12.3393 14.5699 12.3746C14.6828 12.5215 14.8066 12.6597 14.9331 12.8091C15.2358 12.5345 15.5301 12.2669 15.8252 12.0004C15.9182 11.9164 15.9451 11.9185 16.0399 12.0063C16.2651 12.215 16.2559 12.243 16.0132 12.4322C15.8279 12.5765 15.6638 12.7488 15.4876 12.9055C15.4053 12.9788 15.3167 13.0448 15.2208 13.1243Z" fill="black"/>
<path d="M17.1236 8.72434C17.171 8.70852 17.2203 8.69699 17.2655 8.67615C17.4855 8.57479 17.7051 8.55121 17.9424 8.62515C18.1168 8.67949 18.2156 8.79906 18.3139 8.93153C18.1991 9.01949 18.103 9.10387 17.9965 9.17101C17.9206 9.21892 17.8413 9.21084 17.7673 9.13821C17.6366 9.0098 17.595 9.00006 17.4444 9.09563C17.3347 9.16533 17.187 9.17778 17.1296 9.33654C17.0669 9.51012 17.1029 9.58936 17.278 9.60088C17.4767 9.61395 17.6646 9.56363 17.8438 9.49182C18.0622 9.4043 18.2837 9.46277 18.503 9.44732C18.5191 9.44619 18.5372 9.46237 18.5531 9.47255C18.7832 9.61961 18.9342 9.81103 18.9537 10.105C18.9778 10.4688 18.7999 10.6953 18.5266 10.8924C18.2145 11.1175 17.8901 11.1965 17.5212 11.0837C17.3755 11.0392 17.2769 10.937 17.1824 10.8269C17.1296 10.7653 17.1401 10.7023 17.1999 10.6519C17.2696 10.5933 17.3378 10.5289 17.4168 10.4869C17.4751 10.4559 17.5405 10.4497 17.6062 10.5161C17.7161 10.6272 17.857 10.72 18.0153 10.6595C18.1385 10.6123 18.2424 10.5128 18.355 10.4366C18.4585 10.3666 18.4587 10.26 18.4494 10.152C18.4402 10.0443 18.3649 9.95789 18.2606 9.96404C18.1266 9.97195 17.9925 9.99835 17.8609 10.0279C17.6866 10.0671 17.5168 10.1339 17.341 10.1582C17.1193 10.1889 16.94 10.0907 16.7836 9.92435C16.6473 9.77929 16.5826 9.61521 16.6063 9.42453C16.6382 9.16767 16.7916 8.98284 16.9921 8.83517C17.0331 8.80498 17.0738 8.77443 17.1191 8.73285C17.1236 8.72166 17.1236 8.72434 17.1236 8.72434Z" fill="black"/>
<path d="M28.7459 6.70749C28.7727 6.44019 28.7995 6.19229 28.827 5.93747C28.9694 5.93747 29.1193 5.93747 29.2838 5.93747C29.2884 5.9883 29.2963 6.03876 29.2967 6.08928C29.2983 6.27691 29.3031 6.46479 29.2961 6.65217C29.2845 6.96319 29.2689 7.27419 29.2464 7.58456C29.2384 7.69426 29.2173 7.80631 29.1816 7.90991C29.0899 8.17607 28.9161 8.34047 28.6299 8.3942C28.2956 8.45694 27.9734 8.46791 27.6763 8.27838C27.4971 8.16406 27.3867 8.00145 27.3415 7.77612C27.2963 7.55032 27.2742 7.32195 27.3083 7.10419C27.3706 6.70621 27.3302 6.3082 27.355 5.88709C27.5333 5.89242 27.71 5.8464 27.8748 5.91684C27.8663 6.03294 27.8535 6.13023 27.853 6.22759C27.8507 6.66319 27.8662 7.09945 27.8472 7.5342C27.8336 7.84587 27.9982 7.9078 28.2453 7.96412C28.323 7.98183 28.416 7.96584 28.4938 7.93971C28.7152 7.86528 28.7248 7.6527 28.7406 7.4703C28.7619 7.22426 28.7459 6.97485 28.7459 6.70749Z" fill="black"/>
<path d="M35.3601 9.19525C35.1719 9.13019 35.1918 9.09857 35.0578 9.25278C34.9671 9.3572 34.8588 9.44566 34.7444 9.55448C34.609 9.49331 34.4595 9.42576 34.2845 9.34674C34.3893 9.23219 34.4781 9.13801 34.5636 9.04084C34.7413 8.83902 34.9175 8.63586 35.0937 8.43272C35.1423 8.37673 35.1871 8.31728 35.2366 8.26216C35.4522 8.02199 35.6663 7.78039 35.886 7.54415C36.0385 7.38011 36.0756 7.37783 36.2757 7.47063C36.3572 7.50842 36.4398 7.54372 36.5371 7.58689C36.5371 8.46023 36.5371 9.34896 36.5371 10.2398C36.4093 10.1974 36.2824 10.1539 36.1545 10.1134C36.0739 10.088 36.0409 10.0355 36.0426 9.94986C36.0458 9.7896 36.0435 9.62923 36.0435 9.4599C35.8164 9.3701 35.5963 9.28307 35.3601 9.19525ZM35.8642 8.27997C35.7445 8.43483 35.6248 8.58968 35.4905 8.76331C35.6704 8.83131 35.8509 8.89952 36.0442 8.97259C36.0429 8.692 36.0491 8.41829 36.0397 8.11518C35.9702 8.18246 35.9285 8.22276 35.8642 8.27997Z" fill="black"/>
<path d="M42.468 14.7974C42.4083 14.7126 42.3597 14.6371 42.3074 14.556C42.4565 14.4473 42.6359 14.3995 42.8101 14.3354C43.0984 14.2294 43.3802 14.1053 43.6669 13.9944C43.905 13.9023 44.1476 13.8219 44.3855 13.7292C44.5109 13.6802 44.6234 13.5864 44.7524 13.6302C44.821 13.7096 44.8768 13.7797 44.9383 13.8442C45.0667 13.9788 45.0745 14.0706 44.98 14.231C44.8876 14.3878 44.7983 14.547 44.7174 14.7102C44.6084 14.9302 44.5102 15.1558 44.4048 15.3777C44.2459 15.7118 44.0847 16.0448 43.9117 16.4049C43.7779 16.2548 43.6586 16.121 43.538 15.9857C43.6242 15.8097 43.7067 15.6411 43.7973 15.456C43.5939 15.2232 43.3863 14.9855 43.1718 14.74C43.0241 14.8223 42.8573 14.8234 42.73 14.9368C42.7053 14.9588 42.6297 14.9416 42.5895 14.9198C42.5455 14.8959 42.5153 14.8455 42.468 14.7974ZM43.706 14.6875C43.8109 14.79 43.9159 14.8925 44.0206 14.9947C44.1529 14.7351 44.2735 14.4983 44.4133 14.224C44.117 14.3499 43.8637 14.4576 43.6047 14.5676C43.6377 14.6066 43.6632 14.6367 43.706 14.6875Z" fill="black"/>
<path d="M23.6468 7.66582C23.6779 7.50961 23.7101 7.37173 23.7398 7.23331C23.759 7.14371 23.7736 7.05308 23.7922 6.96334C23.8264 6.79881 23.864 6.63499 23.8957 6.46997C23.9044 6.42498 23.897 6.37679 23.897 6.33807C24.0358 6.156 24.2587 6.30816 24.4208 6.15977C24.8848 6.93128 25.3416 7.69086 25.8015 8.45549C25.6203 8.49767 25.454 8.53642 25.2645 8.58053C25.1696 8.42125 25.0674 8.24979 24.9597 8.06911C24.7656 8.07441 24.5712 8.10371 24.3804 8.16543C24.2955 8.1929 24.2072 8.21191 24.1192 8.22649C24.0299 8.24127 24.0047 8.29423 23.9984 8.37888C23.9897 8.49616 23.9722 8.61322 23.9502 8.72875C23.9437 8.76296 23.9137 8.8141 23.8873 8.81925C23.7322 8.84954 23.575 8.86852 23.4024 8.89365C23.488 8.47025 23.5674 8.07709 23.6468 7.66582ZM24.3747 7.71168C24.4843 7.692 24.5939 7.67233 24.7383 7.6464C24.5495 7.39562 24.457 7.12597 24.2717 6.89273C24.2434 7.05253 24.2243 7.18063 24.1975 7.30705C24.1663 7.45454 24.1245 7.60035 24.1689 7.75841C24.23 7.7417 24.2846 7.72673 24.3747 7.71168Z" fill="black"/>
<path d="M38.9583 11.74C38.8423 11.6806 38.7449 11.6156 38.641 11.5643C38.4193 11.455 38.3312 11.2404 38.2273 11.0371C38.2183 11.0195 38.2045 11.0012 38.2039 10.9829C38.1925 10.6263 38.1729 10.2749 38.4095 9.96124C38.5472 9.77855 38.6612 9.58569 38.8561 9.45124C39.0397 9.32462 39.2428 9.27261 39.4508 9.24734C39.5586 9.23426 39.678 9.27744 39.7854 9.31518C39.981 9.38393 40.1582 9.50097 40.3039 9.64295C40.4106 9.74699 40.5042 9.90121 40.5299 10.0466C40.5618 10.2275 40.5919 10.4312 40.4708 10.6201C40.3193 10.5461 40.1282 10.5676 40.014 10.4059C40.1176 10.0934 39.9203 9.7968 39.603 9.75385C39.3249 9.71622 39.1378 9.84765 38.9846 10.0519C38.908 10.154 38.864 10.2811 38.7918 10.3874C38.7046 10.5158 38.6906 10.6536 38.6939 10.8031C38.7 11.0821 38.8952 11.2829 39.1733 11.2842C39.364 11.285 39.364 11.285 39.6264 11.0908C39.7536 11.2094 39.8946 11.3171 39.95 11.4956C39.673 11.7762 39.2935 11.8766 38.9583 11.74Z" fill="black"/>
<path d="M21.6559 7.25842C21.4629 7.3275 21.2851 7.39347 21.0862 7.46733C21.3018 8.11188 21.5102 8.73513 21.7242 9.37485C21.5392 9.41696 21.4201 9.58186 21.2328 9.55102C21.0245 8.92471 20.8179 8.3039 20.6082 7.67355C20.3464 7.64377 20.1467 7.80903 19.9049 7.85398C19.8689 7.72104 19.8319 7.58437 19.7937 7.44336C20.2451 7.27801 20.6792 7.11395 21.1171 6.96119C21.2788 6.90478 21.4494 6.87499 21.6372 6.82772C21.6745 6.96381 21.7083 7.07323 21.7315 7.18494C21.7353 7.20324 21.6925 7.2316 21.6559 7.25842Z" fill="black"/>
<path d="M40.902 13.2515C40.8256 13.1891 40.8487 13.1413 40.8939 13.0894C41.1259 12.823 41.3597 12.5581 41.5869 12.2874C41.8089 12.0229 42.0235 11.7519 42.242 11.4842C42.2806 11.4369 42.3167 11.3844 42.3645 11.3492C42.3899 11.3304 42.4493 11.3272 42.4737 11.345C42.5882 11.4286 42.6959 11.522 42.8118 11.6167C42.7136 11.7489 42.6349 11.8677 42.5434 11.975C42.3859 12.1595 42.218 12.3345 42.0589 12.5176C41.8054 12.8095 41.5552 13.1044 41.305 13.3993C41.2899 13.4172 41.2875 13.4464 41.2826 13.4607C41.1837 13.4964 41.1363 13.4399 41.0817 13.3899C41.0298 13.3423 40.9691 13.3045 40.902 13.2515Z" fill="black"/>
<path d="M17.1245 8.72064C17.1081 8.70945 17.0845 8.68629 17.0748 8.69128C17.0177 8.72085 16.9638 8.75696 16.8975 8.79777C16.7722 8.62699 16.5084 8.68129 16.3935 8.46862C16.4961 8.41692 16.586 8.3443 16.6841 8.3301C16.776 8.31681 16.8764 8.36543 16.9709 8.38632C17.0039 8.27209 17.0041 8.13616 17.0632 8.09987C17.1404 8.05249 17.204 7.92571 17.3497 7.98807C17.3282 8.17364 17.3061 8.36472 17.2843 8.55285C17.2224 8.6 17.1592 8.64819 17.1098 8.71037C17.1236 8.72434 17.1236 8.72166 17.1245 8.72064Z" fill="black"/>
<path d="M36.1372 7.30311C36.1246 7.26749 36.1127 7.22277 36.1292 7.20347C36.2064 7.11352 36.2915 7.03057 36.3737 6.94514C36.4385 6.87783 36.5162 6.88684 36.5905 6.91633C36.7084 6.96312 36.8233 7.01782 36.9549 7.07601C36.8137 7.14675 36.6823 7.1965 36.5687 7.27348C36.4296 7.36782 36.2959 7.371 36.1372 7.30311Z" fill="black"/>
<path d="M28.7565 37.0437C28.5663 37.3771 28.5528 37.7181 28.6572 38.0627C28.7362 38.3236 28.9187 38.4797 29.2019 38.5166C29.2019 38.7731 29.2312 39.032 29.1926 39.28C29.1616 39.4791 29.1645 39.6755 29.1465 39.8725C29.133 40.0202 29.089 40.1649 29.0615 40.3115C29.0397 40.4269 29.0247 40.5437 29.0024 40.6589C28.9479 40.9398 28.8595 41.21 28.7445 41.4707C28.6797 41.6179 28.6245 41.774 28.5341 41.9037C28.4204 42.067 28.2899 42.2256 28.139 42.3519C28.0175 42.4538 27.8472 42.465 27.6876 42.4964C27.5106 42.5311 27.3644 42.489 27.2048 42.4439C27.1392 42.4254 27.118 42.3864 27.0784 42.344C26.8722 42.1235 26.8015 41.8492 26.7504 41.5626C26.7277 41.4354 26.6892 41.3111 26.6589 41.1852C26.6528 41.1598 26.6516 41.1331 26.6476 41.1071C26.5882 40.717 26.5971 40.3237 26.6036 39.9314C26.6082 39.6527 26.6151 39.3719 26.6523 39.0964C26.6993 38.7483 26.7963 38.4068 26.8375 38.0582C26.8709 37.7753 26.9947 37.5236 27.053 37.2502C27.0848 37.1015 27.1919 36.9713 27.2433 36.8249C27.3235 36.5964 27.4579 36.4014 27.6137 36.2301C27.8067 36.0179 28.0529 35.8857 28.3526 35.9053C28.6272 35.9232 28.7505 36.1194 28.8429 36.3475C28.8672 36.4076 28.8722 36.4762 28.899 36.5347C28.9935 36.7408 28.9534 36.9058 28.7565 37.0437Z" fill="black"/>
<path d="M35.396 23.7418C35.3455 23.8046 35.3049 23.86 35.252 23.8973C35.1798 23.9483 35.1028 24.0067 35.02 24.0248C34.6475 24.1063 34.268 24.0832 33.8904 24.0827C33.8654 24.0827 33.8404 24.0763 33.8052 24.0715C33.8052 23.6003 33.8052 23.1354 33.8052 22.6474C33.8921 22.6474 33.9754 22.6474 34.0587 22.6474C34.328 22.6474 34.5972 22.6468 34.8665 22.6475C35.1856 22.6484 35.4511 22.9105 35.447 23.2361C35.4449 23.3996 35.4873 23.5704 35.396 23.7418Z" fill="black"/>
<path d="M33.7939 21.2364C33.7938 20.8733 33.7938 20.5266 33.7938 20.1663C33.8529 20.1607 33.9026 20.1521 33.9523 20.1518C34.1882 20.1503 34.4242 20.155 34.66 20.1502C34.9906 20.1434 35.2083 20.3377 35.1991 20.7114C35.1969 20.802 35.185 20.8941 35.1637 20.9819C35.1062 21.2194 34.943 21.3163 34.7126 21.3292C34.5655 21.3374 34.4176 21.354 34.2733 21.3832C34.1333 21.4116 34.0057 21.3154 33.8653 21.3541C33.8515 21.3579 33.8181 21.2883 33.7939 21.2364Z" fill="black"/>
<path d="M22.5715 20.352C22.7363 20.5171 22.8277 20.6978 22.8058 20.9266C22.8001 20.9862 22.7962 21.0485 22.8066 21.1068C22.8468 21.3328 22.75 21.5251 22.6402 21.6986C22.5752 21.8014 22.4542 21.8957 22.3396 21.932C21.9729 22.0482 21.5929 21.9769 21.2078 21.9904C21.2078 21.3735 21.2078 20.7747 21.2078 20.1513C21.3136 20.1513 21.4163 20.1513 21.519 20.1513C21.7026 20.1513 21.8869 20.161 22.0698 20.1486C22.2673 20.1352 22.4196 20.2179 22.5715 20.352Z" fill="black"/>
<path d="M11.2786 14.5556C11.2345 14.5295 11.2031 14.5103 11.1546 14.4807C11.3212 14.2893 11.4716 14.1009 11.6388 13.9295C11.7661 13.799 11.8969 13.8032 11.992 13.9112C12.1425 14.0821 12.1465 14.2143 12.0172 14.3554C11.925 14.456 11.8457 14.5688 11.7556 14.6716C11.704 14.7304 11.6424 14.7801 11.5764 14.8422C11.4785 14.7462 11.3849 14.6543 11.2786 14.5556Z" fill="white"/>
<path d="M31.7147 7.11451C31.7544 6.96966 31.7833 6.83775 31.8142 6.69638C32.0733 6.70435 32.321 6.70767 32.5464 6.84923C32.7055 6.94909 32.7286 7.00544 32.6516 7.1855C32.631 7.23365 32.6104 7.28178 32.5839 7.34374C32.4304 7.34855 32.2745 7.37712 32.1128 7.31577C32.0074 7.27576 31.8875 7.27284 31.7734 7.25953C31.6817 7.24884 31.6974 7.18753 31.7147 7.11451Z" fill="white"/>
<path d="M35.8755 8.27152C35.9285 8.22276 35.9702 8.18246 36.0397 8.11518C36.0491 8.41829 36.0429 8.692 36.0442 8.97259C35.8509 8.89952 35.6704 8.83131 35.4905 8.76331C35.6248 8.58968 35.7445 8.43483 35.8755 8.27152Z" fill="white"/>
<path d="M43.6974 14.6771C43.6632 14.6367 43.6377 14.6066 43.6047 14.5676C43.8637 14.4576 44.117 14.3499 44.4133 14.224C44.2735 14.4983 44.1529 14.7351 44.0206 14.9947C43.9159 14.8925 43.811 14.79 43.6974 14.6771Z" fill="white"/>
<path d="M24.357 7.71172C24.2847 7.72673 24.23 7.7417 24.1689 7.75841C24.1245 7.60035 24.1663 7.45454 24.1975 7.30705C24.2243 7.18063 24.2434 7.05253 24.2717 6.89273C24.457 7.12597 24.5495 7.39562 24.7383 7.6464C24.5939 7.67233 24.4843 7.692 24.357 7.71172Z" fill="white"/>
</svg>
