<?xml version="1.0" encoding="UTF-8" standalone="no"?>
<!DOCTYPE svg PUBLIC "-//W3C//DTD SVG 1.1//EN" "http://www.w3.org/Graphics/SVG/1.1/DTD/svg11.dtd">
<svg width="100%" height="100%" viewBox="0 0 158 158" version="1.1" xmlns="http://www.w3.org/2000/svg" xmlns:xlink="http://www.w3.org/1999/xlink" xml:space="preserve" xmlns:serif="http://www.serif.com/" style="fill-rule:evenodd;clip-rule:evenodd;stroke-linejoin:round;stroke-miterlimit:2;">
    <g transform="matrix(1.57007,0,0,1.57007,-35.9723,-58.1474)">
        <g>
            <g transform="matrix(1,0,0,1,-15.3368,-10.2055)">
                <path d="M129.865,93.72C129.878,94.145 129.885,94.571 129.885,94.999C129.885,116.892 112.11,134.667 90.217,134.667C68.324,134.667 50.55,116.892 50.55,94.999C50.55,74.374 66.325,57.404 86.458,55.508L86.458,63.889C70.934,65.748 58.883,78.978 58.883,94.999C58.883,112.293 72.924,126.334 90.217,126.334C107.511,126.334 121.552,112.293 121.552,94.999C121.552,94.571 121.543,94.144 121.526,93.72L129.865,93.72Z" style="fill:rgb(0,166,227);"/>
            </g>
            <g transform="matrix(0.516092,-0.453172,0.453172,0.516092,-14.7708,76.6921)">
                <path d="M129.865,93.72C129.878,94.145 129.885,94.571 129.885,94.999C129.885,116.892 112.11,134.667 90.217,134.667C68.324,134.667 50.55,116.892 50.55,94.999C50.55,74.374 66.325,57.404 86.458,55.508L86.458,63.889C70.934,65.748 58.883,78.978 58.883,94.999C58.883,112.293 72.924,126.334 90.217,126.334C107.511,126.334 121.552,112.293 121.552,94.999C121.552,94.571 121.543,94.144 121.526,93.72L129.865,93.72Z" style="fill:rgb(0,166,227);stroke:rgb(0,166,227);stroke-width:1.55px;"/>
            </g>
            <g transform="matrix(1,0,0,1,0.773559,-1.76214)">
                <path d="M70.78,100.968C63.843,99.433 58.647,93.241 58.647,85.845C58.647,77.297 65.587,70.357 74.135,70.357C82.152,70.357 88.755,76.462 89.544,84.272L81.968,84.272C81.236,80.616 78.005,77.857 74.135,77.857C69.727,77.857 66.147,81.437 66.147,85.845C66.147,89.056 68.046,91.826 70.78,93.095L70.78,100.968Z" style="fill:rgb(0,166,227);"/>
            </g>
        </g>
        <path d="M43.64,82.353C41.131,78.315 39.363,73.769 38.527,68.906C44.18,56.005 56.502,46.679 71.121,45.302L71.121,53.683C56.393,55.448 44.791,67.446 43.64,82.353ZM107.034,83.514C106.768,83.909 106.495,84.299 106.215,84.684C106.213,84.292 106.205,83.902 106.189,83.514L107.034,83.514ZM92.91,95.403C97.551,87.601 96.682,78.608 90.373,71.423C90.178,71.202 89.332,70.202 89.131,69.991L94.743,64.92C94.943,65.133 95.546,65.749 95.753,65.958C102.043,72.336 103.694,82.084 102.19,90.043C99.725,92.371 95.932,93.802 92.91,95.403ZM47.39,88.557C45.929,80.811 48.89,70.495 55.254,64.549L59.969,70.373C54.492,77 52.317,86.683 56.156,94.454C53.276,92.627 49.672,91.072 47.39,88.557ZM71.554,99.206C64.617,97.671 59.421,91.479 59.421,84.083C59.421,75.535 66.361,68.595 74.909,68.595C82.926,68.595 89.528,74.7 90.317,82.51L82.741,82.51C82.01,78.854 78.779,76.095 74.909,76.095C70.5,76.095 66.921,79.674 66.921,84.083C66.921,87.294 68.819,90.064 71.554,91.333L71.554,99.206Z" style="fill:rgb(44,198,255);"/>
    </g>
</svg>
